<?xml version="1.0" encoding="utf-8"?>
<!-- Generator: Adobe Illustrator 19.0.0, SVG Export Plug-In . SVG Version: 6.00 Build 0)  -->
<svg version="1.1" id="Layer_1" xmlns="http://www.w3.org/2000/svg" xmlns:xlink="http://www.w3.org/1999/xlink" x="0px" y="0px"
	 viewBox="0 0 500 500" style="enable-background:new 0 0 500 500;" xml:space="preserve">
<style type="text/css">
	.st0{fill:#FFFFFF;}
	.st1{fill:#C90016;}
	.st2{fill:#AD8B3A;}
</style>
<g id="XMLID_274_">
	<path id="XMLID_298_" class="st0" d="M323.2,365.6c-4.6-1.4-8.1,0.2-10.4,1.6c-0.6,0.4-1.6,1.1-1.7,1.4c-0.2,0.3-0.2,0.5,0.1,0.9
		c0.7,1.2,2.6,4.2,4.3,7l2.7,4.4c2.3,3.7,4,6.3,4.4,7c0.6,0.8,1.5,2.2,2,2.4c0.8,0.4,2.4,0.4,4.6-1c3-1.8,4.5-3.8,5.1-6.6
		c0.7-3.1-0.7-6.6-3-10.1C328.7,368.1,325.4,366.2,323.2,365.6z M200.9,379.5l-6.6,8.2c-0.1,0.1-0.1,0.3,0,0.3l5.8,2.3
		c0.2,0.1,0.2,0,0.2-0.2l0.8-10.5c0-0.2,0.1-0.4,0-0.4C201.1,379.2,201,379.4,200.9,379.5z M290.8,377.6c-0.8,0.3-1.4,0.5-1.6,0.8
		c-0.2,0.2-0.2,0.3-0.1,0.6l4.3,11.7c0.2,0.4,0.3,0.6,0.5,0.6c0.8,0,1.8-0.2,2.6-0.5c1.3-0.5,1.6-0.8,2-1.5c0.7-1.2,0.9-3.3-0.2-6.4
		C296.2,377.4,292.7,376.9,290.8,377.6z M269.6,388.9c-0.1-0.2-0.1-0.4-0.2-0.3c-0.1,0-0.1,0.2-0.1,0.4l-1.6,10.4
		c0,0.2,0,0.3,0.2,0.3l6.2-0.9c0.2,0,0.2-0.2,0.1-0.3L269.6,388.9z M157.8,338.7c2.9-3.1,6.2-4.5,6.3-4.5l0.2-0.1l0.2,0
		c1.3,0,1.7-0.2,1.8-0.3c-0.2-0.4-0.7-1-1.4-1.5c-6.6-5.5-11-0.7-11.5-0.2l-16.2,19.5c1.7,0.6,3.7,2.1,4.9,4.8L157.8,338.7
		L157.8,338.7z M225.3,381c-0.8-0.2-1.4-0.3-1.8-0.2c-0.3,0-0.4,0.2-0.4,0.5l-2.6,12.1c-0.1,0.4-0.1,0.6,0.1,0.8
		c0.6,0.4,1.6,0.8,2.4,0.9c1.3,0.3,1.8,0.2,2.5-0.2c1.2-0.7,2.6-2.3,3.3-5.6C230.1,383.8,227.3,381.5,225.3,381z M335.6,331.4
		c-2.8,1.7-3.2,2.5-3.3,2.7c0.3,0.3,1.7,0.7,3,0.8l0.2,0l0.2,0.1c2.9,1,4.4,2.3,4.4,2.4c2.3,1.8,10.2,10.8,16.3,17.9
		c0.9-1.4,2.5-2.9,4.9-3.7L347,333.3C341.1,328.3,335.9,331.3,335.6,331.4L335.6,331.4z M384.9,338.9l-23.1-22
		c-0.3-0.3-7.8-8.2-14.6-2.3c0,0-1.3,1.2-1.4,2.8c0,1,0.4,2,1.1,2.8c2.1,1.5,3.1,2.4,3.6,3c1.6,0.3,4.4,0.2,3.9-3.7
		c0,0,0.1-2-1.6-1.7c0,0-2.6-1.5,1.9-1.9c0,0,7.9,2.8-2,9.3c0,0-1.1,0.8-4.3,0c-12.2-1.9-17.8,4.1-18.1,4.5c-2,1.9-3.1,3.8-3.1,5.4
		c0,0.2,0,0.3,0,0.5c0.3,1.7,1.7,2.8,2.3,3.1c2.2-0.3,3.5,0.7,3.7,0.8c2.2,1.9,3.1,3.8,2.7,5.5c-0.6,2.6-3.9,3.5-4.3,3.6l-0.2,0.1
		l-0.2,0c-4.8-0.6-8.1,1.7-8.1,1.7c-0.7,0.6-67.4,54.7-146.5-0.5c0,0-2.5-2-8.5-1.4l-0.2,0l-0.2,0c-0.3-0.1-3.3-0.8-4.1-3.1
		c-0.5-1.5,0-3.1,1.4-4.8c0.1-0.2,1.5-2,5.2-1.4c0.2,0,1.9-0.3,2.4-1.5c0.1-0.3,0.2-0.6,0.2-1c0-1.3-0.7-3-2.1-5
		c-0.1-0.1-8.9-9.6-19.1-6.3c-1,0.4-2.1,0.6-3.4,0.6l0,0l0,0c-0.1,0-0.3,0-0.4,0l0-0.1c-1.2-0.2-4.9-1.3-6-6c0,0,0.3-3.7,3.6-3.8
		c0,0,3.1,0.7,1.5,1.8l-0.1-0.1c0,0-2.3-0.6-1.4,2.4c0,0,0.6,3,3.5,3.2c0.6,0,1.2-0.1,1.6-0.3l0-0.1l0.2,0c0.5-0.2,0.9-0.5,1.2-0.9
		c0.9-1.1,1.1-2.7,1.1-4.1c0-1.2-0.2-2.2-0.3-2.9c-2.8-4.8-10.4-1.7-11.2-1.3c-0.3,0.3-28.6,26.9-28.9,27.2c-0.2,0.4-1.1,2.4-1.1,5
		c0,3.2,1.3,7.5,6.8,11.4c0.1,0,6.9,3.7,11,0.1l22.3-26.9c0.1-0.1,6.4-7.4,15-0.2c0.6,0.5,2.4,2,2.4,3.6c0,0.2,0,0.4-0.1,0.7
		c-0.5,1.6-2.5,1.9-4,2c-0.4,0.2-3,1.3-5.3,3.8c0,0-22.1,25.4-22.4,25.7c-0.2,0.4-1.1,2.6-1.1,5.5c0,1.4,0.2,3,0.9,4.5
		c1.5,3.3,4.9,5.6,10,6.9c0.3,0.1,6.2,1.6,12.4,7.3c0.9,0.7,89.7,64.1,186.5-4.2c0.5-0.6,3.2-3.1,9.4-3.4c0.2-0.1,5.5-1.8,7.6-6.5
		c0.5-1.2,0.8-2.5,0.8-3.8c0-2-0.6-4.3-1.7-6.7c-1.9-2.2-4.2-5-6.7-7.9l-0.1,0l0-0.1c-6.8-7.9-14.6-16.8-16.7-18.4
		c0,0-1.2-1-3.5-1.9c-1.3-0.1-4.6-0.5-5.1-2.7c0-0.2-0.1-0.4-0.1-0.6c0-1.9,2.4-3.6,4.5-4.9c0.1,0,7-4,14.4,2.4l19.7,24.9
		c0.3,0.3,6.6,6,13-0.2c0.1,0,5.8-4.5,6.2-10.1C388,343.6,387,341.2,384.9,338.9L384.9,338.9z M176.2,393c0.4,0.3,1,0.8,1.4,1
		c0.3,0.2,0.4,0.4,0.3,0.6c-0.1,0.2-0.4,0.2-0.8,0c-1.9-1.2-3.7-2.4-4.5-2.9c-0.7-0.4-2.6-1.4-3.7-2.1c-0.4-0.2-0.5-0.5-0.4-0.7
		c0.1-0.2,0.3-0.2,0.6,0c0.4,0.3,0.8,0.4,1.1,0.5c0.7,0.2,1.3-0.5,2-1.4c1-1.4,2.7-4.1,4.7-7.3l1.9-3.1c0.1-0.1,0-0.3,0-0.3
		l-11.1-6.8c-0.1-0.1-0.2-0.1-0.3,0.1l-1.9,3.1c-2,3.2-3.6,6-4.4,7.6c-0.5,1-0.8,1.9,0,2.6c0.4,0.3,1,0.8,1.4,1
		c0.3,0.2,0.4,0.4,0.3,0.6c-0.1,0.2-0.4,0.2-0.8,0c-1.9-1.1-3.7-2.4-4.5-2.9c-0.7-0.4-2.6-1.4-3.7-2.1c-0.4-0.2-0.5-0.5-0.4-0.7
		c0.1-0.2,0.3-0.2,0.6,0c0.4,0.3,0.8,0.4,1.1,0.5c0.7,0.2,1.3-0.5,2-1.4c1-1.4,2.7-4.1,4.7-7.3l3.7-6.1c3.2-5.3,3.8-6.3,4.4-7.4
		c0.7-1.2,0.8-1.9,0-2.8c-0.2-0.2-0.7-0.5-1.1-0.8c-0.3-0.2-0.5-0.4-0.3-0.6c0.1-0.2,0.4-0.2,0.8,0.1c1.6,1,3.3,2.2,4.1,2.7
		c0.7,0.4,2.6,1.4,3.7,2.1c0.4,0.2,0.6,0.4,0.4,0.7c-0.1,0.2-0.4,0.2-0.7,0c-0.2-0.1-0.5-0.3-0.9-0.4c-0.9-0.3-1.5,0.1-2.3,1.3
		c-0.7,1.1-1.3,2.1-4.6,7.4l-0.4,0.7c-0.1,0.2-0.1,0.3,0,0.4l11.1,6.8c0.1,0,0.2,0,0.3-0.1l0.4-0.7c3.2-5.3,3.8-6.3,4.4-7.4
		c0.7-1.2,0.8-1.9,0-2.7c-0.2-0.2-0.7-0.5-1.1-0.8c-0.3-0.2-0.5-0.4-0.3-0.6c0.1-0.2,0.4-0.2,0.8,0.1c1.6,1,3.3,2.2,4.1,2.7
		c0.7,0.4,2.6,1.4,3.7,2.1c0.4,0.2,0.6,0.4,0.4,0.7c-0.1,0.2-0.4,0.2-0.7,0c-0.2-0.1-0.5-0.3-0.9-0.4c-0.9-0.3-1.5,0.1-2.3,1.3
		c-0.7,1.1-1.3,2.1-4.6,7.4l-3.7,6.1c-2,3.2-3.6,6-4.4,7.6C175.7,391.4,175.4,392.3,176.2,393L176.2,393z M206.8,406.2
		c-0.1,0.3-0.4,0.3-1.6-0.2c-1.1-0.4-3.5-1.4-6-2.4c-0.6-0.3-0.9-0.4-0.8-0.7c0.1-0.2,0.2-0.3,0.6-0.2c0.3,0,0.6-0.2,0.6-0.8
		l0.6-9.1c0-0.2-0.1-0.3-0.2-0.4l-7.1-2.8c-0.2-0.1-0.3,0-0.4,0.2l-3.9,4.8c-0.7,0.8-1.2,1.7-1.4,2.1c-0.3,0.7-0.2,1.3,0.8,1.7
		l0.5,0.2c0.4,0.1,0.4,0.3,0.4,0.5c-0.1,0.3-0.3,0.3-0.7,0.2c-1-0.4-2.3-1-3.3-1.4c-0.3-0.1-2.1-0.7-3.8-1.4
		c-0.4-0.2-0.6-0.3-0.5-0.6c0.1-0.2,0.2-0.3,0.5-0.2c0.3,0.1,0.7,0.2,1,0.3c1.5,0.3,2.7-0.7,4-2.4l17.3-20.7c0.8-1,1.2-1.3,1.5-1.2
		c0.3,0.1,0.3,0.5,0.3,1.5c-0.1,2.4-1.1,19.9-1.3,26.5c-0.1,3.9,0.6,4.8,1.2,5.2c0.4,0.3,0.9,0.5,1.3,0.7
		C206.7,405.8,206.9,405.9,206.8,406.2z M236.2,412.6c-0.1,0.3-0.3,0.3-0.7,0.3l-3.2-0.7c-1.9-0.4-2.7-0.8-3.4-1.5
		c-1.2-1.2-2.1-3.4-3.3-6.9c-0.9-2.5-1.8-5.5-2.1-6.2c-0.1-0.3-0.3-0.4-0.5-0.4l-2.9-0.7c-0.2,0-0.3,0-0.3,0.3l-0.1,0.6
		c-0.8,3.7-1.5,6.9-1.7,8.6c-0.2,1.2-0.1,2.1,0.8,2.5c0.5,0.2,1.2,0.4,1.6,0.5c0.3,0.1,0.4,0.2,0.3,0.4c-0.1,0.3-0.3,0.3-0.8,0.3
		c-1.9-0.4-4.4-1.1-4.9-1.2c-0.6-0.1-2.8-0.5-4.1-0.8c-0.4-0.1-0.6-0.3-0.6-0.5c0-0.2,0.2-0.3,0.6-0.2c0.5,0.1,0.9,0.1,1.2,0.1
		c0.7,0,1.1-0.9,1.4-2c0.5-1.6,1.2-4.8,2-8.5l1.5-7c1.3-6.1,1.6-7.2,1.8-8.5c0.2-1.4,0.1-2.1-0.9-2.6c-0.2-0.1-0.8-0.3-1.3-0.4
		c-0.4-0.1-0.5-0.2-0.5-0.5c0.1-0.3,0.3-0.3,0.8-0.2c1.8,0.4,3.8,1,4.5,1.1c1.1,0.2,3.7,0.7,4.7,0.9c2.1,0.5,4.3,1.2,5.8,3
		c0.8,1,1.7,3.3,1.1,6c-0.6,3-2.3,5.4-6.3,8c2,5.1,3.5,9.2,4.9,12.1c1.4,2.7,2.7,3.3,3.1,3.5c0.4,0.2,0.6,0.3,0.9,0.3
		C236.1,412.3,236.2,412.4,236.2,412.6z M254.6,398.3c-2.4,5.9-4.1,10.3-4.9,12.3c-1,2.3-1.2,3-1.7,3c-0.4,0-0.6-0.6-1.2-2.5
		l-7.8-25.2c-0.7-2.3-1.3-2.7-2.5-3.2c-0.5-0.2-1.1-0.2-1.3-0.2c-0.3,0-0.4-0.1-0.4-0.4c0-0.3,0.4-0.4,0.9-0.3
		c1.8,0.1,3.7,0.2,4.9,0.3c0.9,0,2.5,0,4.2,0c0.4,0,0.8,0.1,0.8,0.4c0,0.3-0.2,0.4-0.5,0.3c-0.5,0-1.1,0-1.3,0.2
		c-0.2,0.2-0.4,0.5-0.4,0.8c0,0.5,0.3,1.7,0.7,3.2l5.3,18.7l0.1,0c1.6-4.4,6.5-17.4,7.4-20.1c0.2-0.5,0.3-1.1,0.4-1.5
		c0-0.3-0.1-0.7-0.4-0.8c-0.4-0.2-0.9-0.2-1.4-0.3c-0.3,0-0.6-0.1-0.6-0.3c0-0.3,0.3-0.4,1-0.4c1.7,0.1,3.1,0.2,3.6,0.2
		c0.6,0,2.2-0.1,3.2,0c0.4,0,0.7,0.1,0.7,0.4c0,0.3-0.2,0.4-0.6,0.4c-0.3,0-1.1,0-1.7,0.4c-0.5,0.3-1,1-2,3.6
		C257.6,391.2,256.6,393.4,254.6,398.3L254.6,398.3z M286.2,409.7c-1.2,0.2-3.7,0.6-6.4,0.9c-0.6,0.1-1,0.1-1.1-0.2
		c0-0.2,0.1-0.3,0.4-0.4c0.2-0.1,0.4-0.5,0.2-1l-4-8.2c-0.1-0.2-0.2-0.3-0.4-0.2l-7.5,1.1c-0.2,0-0.2,0.1-0.3,0.4l-0.9,6.1
		c-0.2,1.1-0.2,2.1-0.1,2.5c0.1,0.7,0.5,1.2,1.5,1.1l0.5-0.1c0.4-0.1,0.5,0,0.6,0.2c0,0.3-0.1,0.4-0.5,0.5c-1.1,0.2-2.5,0.3-3.6,0.4
		c-0.4,0.1-2.2,0.5-4,0.7c-0.4,0.1-0.7,0-0.7-0.3c0-0.2,0.1-0.3,0.4-0.4c0.3,0,0.8-0.2,1-0.2c1.5-0.5,1.9-1.9,2.3-4.1l4.6-26.6
		c0.2-1.2,0.4-1.7,0.7-1.8c0.3,0,0.6,0.3,1,1.2c1.1,2.1,9,17.8,12.1,23.6c1.8,3.4,2.9,3.9,3.6,4c0.5,0.1,1,0,1.4-0.1
		c0.3,0,0.4,0,0.5,0.3C287.7,409.4,287.4,409.5,286.2,409.7L286.2,409.7z M316.4,399.1l-3,1.1c-1.8,0.7-2.7,0.8-3.7,0.5
		c-1.7-0.4-3.6-1.7-6.4-4c-2-1.6-4.5-3.7-5.1-4.1c-0.2-0.2-0.4-0.1-0.7-0.1l-2.8,0.9c-0.2,0.1-0.2,0.2-0.1,0.4l0.2,0.5
		c1.3,3.6,2.4,6.6,3.2,8.1c0.5,1.1,1,1.9,2,1.7c0.5-0.1,1.2-0.3,1.6-0.4c0.3-0.1,0.4,0,0.5,0.2c0.1,0.3-0.1,0.5-0.5,0.6
		c-1.9,0.7-4.3,1.4-4.7,1.6c-0.6,0.2-2.6,1.1-3.9,1.5c-0.4,0.2-0.7,0.1-0.8-0.1c-0.1-0.2,0-0.4,0.4-0.5c0.5-0.2,0.8-0.4,1.1-0.6
		c0.6-0.4,0.4-1.3,0.2-2.5c-0.4-1.7-1.5-4.7-2.8-8.2l-2.5-6.8c-2.1-5.8-2.5-6.9-3-8.1c-0.5-1.3-1-1.8-2.2-1.7
		c-0.3,0-0.8,0.2-1.3,0.3c-0.4,0.1-0.6,0.1-0.7-0.1c-0.1-0.3,0.1-0.4,0.6-0.6c1.7-0.6,3.8-1.2,4.4-1.5c1.1-0.4,3.5-1.4,4.5-1.8
		c2-0.7,4.2-1.3,6.5-0.5c1.2,0.4,3.2,1.9,4.1,4.5c1,2.8,1,5.8-1.1,10.1c4.4,3.3,7.9,5.9,10.6,7.5c2.6,1.6,4,1.4,4.5,1.3
		c0.4-0.1,0.7-0.1,0.9-0.2c0.3-0.1,0.4,0,0.5,0.2C317,398.8,316.8,398.9,316.4,399.1z M337.5,380.7c-0.3,2.5-1.8,6.8-7.1,10.1
		c-1,0.7-2.3,1.3-3.5,1.9c-1.2,0.6-2.2,1.1-3,1.6c-0.3,0.2-1,0.6-1.6,1.1c-0.7,0.4-1.4,1-2,1.3c-0.4,0.2-0.6,0.3-0.8,0
		c-0.1-0.2-0.1-0.4,0.3-0.6c0.4-0.3,0.7-0.6,1-0.8c0.5-0.5,0.2-1.3-0.4-2.4c-0.8-1.5-2.5-4.3-4.5-7.5l-3.8-6.1
		c-3.3-5.3-3.9-6.2-4.6-7.3c-0.8-1.1-1.4-1.6-2.5-1.2c-0.3,0.1-0.8,0.3-1.2,0.6c-0.3,0.2-0.5,0.2-0.7,0c-0.2-0.2,0-0.4,0.4-0.7
		c1.5-1,3.4-2,4.2-2.5c0.9-0.6,2.7-1.8,4.4-2.9c3.6-2.3,8.4-5.3,14.1-3.3c2.6,0.9,5.7,2.9,8.3,7.1
		C337.4,373.5,337.9,377.8,337.5,380.7L337.5,380.7z"/>
	<path id="XMLID_299_" d="M179.9,375.4c0.1,0,0.2,0,0.3-0.1l0.4-0.7c3.2-5.3,3.8-6.3,4.4-7.4c0.7-1.2,0.8-1.9,0-2.8
		c-0.2-0.2-0.7-0.5-1.1-0.8c-0.3-0.2-0.5-0.4-0.3-0.6c0.1-0.2,0.4-0.2,0.8,0.1c1.6,1,3.3,2.2,4.1,2.7c0.7,0.4,2.6,1.4,3.7,2.1
		c0.4,0.2,0.6,0.4,0.4,0.7c-0.1,0.2-0.4,0.2-0.7,0c-0.2-0.1-0.5-0.3-0.9-0.4c-0.9-0.3-1.5,0.1-2.3,1.3c-0.7,1.1-1.3,2.1-4.6,7.4
		l-3.7,6.1c-2,3.2-3.6,6-4.4,7.6c-0.5,1-0.8,1.9,0,2.6c0.4,0.3,1,0.8,1.4,1c0.3,0.2,0.4,0.4,0.3,0.6c-0.1,0.2-0.4,0.2-0.8,0
		c-1.9-1.2-3.7-2.4-4.5-2.9c-0.7-0.4-2.6-1.4-3.7-2.1c-0.4-0.2-0.5-0.5-0.4-0.7c0.1-0.2,0.3-0.2,0.6,0c0.4,0.3,0.8,0.4,1.1,0.5
		c0.7,0.2,1.3-0.5,2-1.4c1-1.4,2.7-4.1,4.7-7.3l1.9-3.1c0.1-0.1,0-0.3,0-0.3l-11.1-6.8c-0.1-0.1-0.2-0.1-0.3,0.1l-1.9,3.1
		c-2,3.2-3.6,6-4.4,7.6c-0.5,1-0.8,1.9,0,2.6c0.4,0.3,1,0.8,1.4,1c0.3,0.2,0.4,0.4,0.3,0.6c-0.1,0.2-0.4,0.2-0.8,0
		c-1.9-1.1-3.7-2.4-4.5-2.9c-0.7-0.4-2.6-1.4-3.7-2.1c-0.4-0.2-0.5-0.5-0.4-0.7c0.1-0.2,0.3-0.2,0.6,0c0.4,0.3,0.8,0.4,1.1,0.5
		c0.7,0.2,1.3-0.5,2-1.4c1-1.4,2.7-4.1,4.7-7.3l3.7-6.1c3.2-5.3,3.8-6.3,4.4-7.4c0.7-1.2,0.8-1.9,0-2.8c-0.2-0.2-0.7-0.5-1.1-0.8
		c-0.3-0.2-0.5-0.4-0.3-0.6c0.1-0.2,0.4-0.2,0.8,0.1c1.6,1,3.3,2.2,4.1,2.7c0.7,0.4,2.6,1.4,3.7,2.1c0.4,0.2,0.6,0.4,0.4,0.7
		c-0.1,0.2-0.4,0.2-0.7,0c-0.2-0.1-0.5-0.3-0.9-0.4c-0.9-0.3-1.5,0.1-2.3,1.3c-0.7,1.1-1.3,2.1-4.6,7.4l-0.4,0.7
		c-0.1,0.2-0.1,0.3,0,0.4L179.9,375.4L179.9,375.4z"/>
	<path id="XMLID_306_" d="M192.9,389.7c-0.2-0.1-0.3,0-0.4,0.2l-3.9,4.8c-0.7,0.8-1.2,1.7-1.4,2.1c-0.3,0.7-0.2,1.3,0.8,1.7l0.5,0.2
		c0.4,0.1,0.4,0.3,0.4,0.5c-0.1,0.3-0.3,0.3-0.7,0.2c-1-0.4-2.3-1-3.3-1.4c-0.3-0.1-2.1-0.7-3.8-1.4c-0.4-0.2-0.6-0.3-0.5-0.6
		c0.1-0.2,0.2-0.3,0.5-0.2c0.3,0.1,0.7,0.2,1,0.3c1.5,0.3,2.7-0.7,4-2.4l17.3-20.7c0.8-1,1.2-1.3,1.5-1.2c0.3,0.1,0.3,0.5,0.3,1.5
		c-0.1,2.4-1.1,19.9-1.3,26.5c-0.1,3.9,0.6,4.8,1.2,5.2c0.4,0.3,0.9,0.5,1.3,0.7c0.3,0.1,0.4,0.2,0.3,0.5c-0.1,0.3-0.4,0.3-1.6-0.2
		c-1.1-0.4-3.5-1.4-6-2.4c-0.6-0.3-0.9-0.4-0.8-0.7c0.1-0.2,0.2-0.3,0.6-0.2c0.3,0,0.6-0.2,0.6-0.8l0.6-9.1c0-0.2-0.1-0.3-0.2-0.4
		L192.9,389.7 M200.1,390.4c0.2,0.1,0.2,0,0.2-0.2l0.8-10.5c0-0.2,0.1-0.4,0-0.4c-0.1,0-0.2,0.1-0.3,0.3l-6.6,8.2
		c-0.1,0.1-0.1,0.3,0,0.3L200.1,390.4z"/>
	<path id="XMLID_309_" d="M217.2,389.4c1.3-6.1,1.6-7.2,1.8-8.5c0.2-1.4,0.1-2.1-0.9-2.6c-0.2-0.1-0.8-0.3-1.3-0.4
		c-0.4-0.1-0.5-0.2-0.5-0.5c0.1-0.3,0.3-0.3,0.8-0.2c1.8,0.4,3.8,1,4.5,1.1c1.1,0.2,3.7,0.7,4.7,0.9c2.1,0.5,4.3,1.2,5.8,3
		c0.8,1,1.7,3.3,1.1,6c-0.6,3-2.3,5.4-6.3,8c2,5.1,3.5,9.2,4.9,12.1c1.4,2.7,2.7,3.3,3.1,3.5c0.4,0.2,0.6,0.3,0.9,0.3
		c0.3,0.1,0.4,0.2,0.3,0.4c-0.1,0.3-0.3,0.3-0.7,0.3l-3.2-0.7c-1.9-0.4-2.7-0.8-3.4-1.5c-1.2-1.2-2.1-3.4-3.3-6.9
		c-0.9-2.5-1.8-5.5-2.1-6.2c-0.1-0.3-0.3-0.4-0.5-0.4l-2.9-0.7c-0.2,0-0.3,0-0.3,0.3l-0.1,0.6c-0.8,3.7-1.5,6.9-1.7,8.6
		c-0.2,1.2-0.1,2.1,0.8,2.5c0.5,0.2,1.2,0.4,1.6,0.5c0.3,0.1,0.4,0.2,0.3,0.4c-0.1,0.3-0.3,0.3-0.8,0.3c-1.9-0.4-4.4-1.1-4.9-1.2
		c-0.6-0.1-2.8-0.5-4.1-0.8c-0.4-0.1-0.6-0.3-0.6-0.5c0-0.2,0.2-0.3,0.6-0.2c0.5,0.1,0.9,0.1,1.2,0.1c0.7,0,1.1-0.9,1.4-2
		c0.5-1.6,1.2-4.8,2-8.5L217.2,389.4 M220.5,393.4c-0.1,0.4-0.1,0.6,0.1,0.8c0.6,0.4,1.6,0.8,2.4,0.9c1.3,0.3,1.8,0.2,2.5-0.2
		c1.2-0.7,2.6-2.3,3.3-5.6c1.2-5.7-1.5-8-3.5-8.4c-0.8-0.2-1.4-0.3-1.8-0.2c-0.3,0-0.4,0.2-0.4,0.5L220.5,393.4z"/>
	<path id="XMLID_310_" d="M239,385.9c-0.7-2.3-1.3-2.7-2.5-3.2c-0.5-0.2-1.1-0.2-1.3-0.2c-0.3,0-0.4-0.1-0.4-0.4
		c0-0.3,0.4-0.4,0.9-0.3c1.8,0.1,3.7,0.2,4.9,0.3c0.9,0,2.5,0,4.2,0c0.4,0,0.8,0.1,0.8,0.4c0,0.3-0.2,0.4-0.5,0.3
		c-0.5,0-1.1,0-1.3,0.2c-0.2,0.2-0.4,0.5-0.4,0.8c0,0.5,0.3,1.7,0.7,3.2l5.3,18.7l0.1,0c1.6-4.4,6.5-17.4,7.4-20.1
		c0.2-0.5,0.3-1.1,0.4-1.5c0-0.3-0.1-0.7-0.4-0.8c-0.4-0.2-0.9-0.2-1.4-0.3c-0.3,0-0.6-0.1-0.6-0.3c0-0.3,0.3-0.4,1-0.4
		c1.7,0.1,3.1,0.2,3.6,0.2c0.6,0,2.2-0.1,3.2,0c0.4,0,0.7,0.1,0.7,0.4c0,0.3-0.2,0.4-0.6,0.4c-0.3,0-1.1,0-1.7,0.4
		c-0.5,0.3-1,1-2,3.6c-1.5,3.8-2.4,6-4.4,10.9c-2.4,5.9-4.1,10.3-4.9,12.3c-1,2.3-1.2,3-1.7,3c-0.4,0-0.6-0.6-1.2-2.5L239,385.9z"/>
	<path id="XMLID_313_" d="M267.5,401.7c-0.2,0-0.2,0.1-0.3,0.4l-0.9,6.1c-0.2,1.1-0.2,2.1-0.1,2.5c0.1,0.7,0.5,1.2,1.5,1.1l0.5-0.1
		c0.4-0.1,0.5,0,0.6,0.2c0,0.3-0.1,0.4-0.5,0.5c-1.1,0.2-2.5,0.3-3.6,0.4c-0.4,0.1-2.2,0.5-4,0.7c-0.4,0.1-0.7,0-0.7-0.3
		c0-0.2,0.1-0.3,0.4-0.4c0.3,0,0.8-0.2,1-0.2c1.5-0.5,1.9-1.9,2.3-4.1l4.6-26.6c0.2-1.2,0.4-1.7,0.7-1.8c0.3,0,0.6,0.3,1,1.2
		c1.1,2.1,9,17.8,12.1,23.6c1.8,3.4,2.9,3.9,3.6,4c0.5,0.1,1,0,1.4-0.1c0.3,0,0.4,0,0.5,0.3c0,0.3-0.2,0.4-1.5,0.6
		c-1.2,0.2-3.7,0.6-6.4,0.9c-0.6,0.1-1,0.1-1.1-0.2c0-0.2,0.1-0.3,0.4-0.4c0.2-0.1,0.4-0.5,0.2-1l-4-8.2c-0.1-0.2-0.2-0.3-0.4-0.2
		L267.5,401.7 M274,398.7c0.2,0,0.2-0.2,0.1-0.3l-4.5-9.5c-0.1-0.2-0.1-0.4-0.2-0.3c-0.1,0-0.1,0.2-0.1,0.4l-1.6,10.4
		c0,0.2,0,0.3,0.2,0.3L274,398.7z"/>
	<path id="XMLID_316_" d="M288.4,389c-2.1-5.8-2.5-6.9-3-8.1c-0.5-1.3-1-1.8-2.2-1.7c-0.3,0-0.8,0.2-1.3,0.3
		c-0.4,0.1-0.6,0.1-0.7-0.1c-0.1-0.3,0.1-0.4,0.6-0.6c1.7-0.6,3.8-1.2,4.4-1.5c1.1-0.4,3.5-1.4,4.5-1.8c2-0.7,4.2-1.3,6.5-0.5
		c1.2,0.4,3.2,1.9,4.1,4.5c1,2.8,1,5.8-1.1,10.1c4.4,3.3,7.9,5.9,10.6,7.5c2.6,1.6,4,1.4,4.5,1.3c0.4-0.1,0.7-0.1,0.9-0.2
		c0.3-0.1,0.4,0,0.5,0.2c0.1,0.3-0.1,0.5-0.5,0.6l-3,1.1c-1.8,0.7-2.7,0.8-3.7,0.5c-1.7-0.4-3.6-1.7-6.4-4c-2-1.6-4.5-3.7-5.1-4.1
		c-0.2-0.2-0.4-0.1-0.7-0.1l-2.8,0.9c-0.2,0.1-0.2,0.2-0.1,0.4l0.2,0.5c1.3,3.6,2.4,6.6,3.2,8.1c0.5,1.1,1,1.9,2,1.7
		c0.5-0.1,1.2-0.3,1.6-0.4c0.3-0.1,0.4,0,0.5,0.2c0.1,0.3-0.1,0.5-0.5,0.6c-1.9,0.7-4.3,1.4-4.7,1.6c-0.6,0.2-2.6,1.1-3.9,1.5
		c-0.4,0.2-0.7,0.1-0.8-0.1c-0.1-0.2,0-0.4,0.4-0.5c0.5-0.2,0.8-0.4,1.1-0.6c0.6-0.4,0.4-1.3,0.2-2.5c-0.4-1.7-1.5-4.7-2.8-8.2
		L288.4,389 M293.3,390.7c0.2,0.4,0.3,0.6,0.5,0.6c0.8,0,1.8-0.2,2.6-0.5c1.3-0.5,1.6-0.8,2-1.5c0.7-1.2,0.9-3.3-0.2-6.4
		c-2-5.4-5.6-5.9-7.5-5.2c-0.8,0.3-1.4,0.5-1.6,0.8c-0.2,0.2-0.2,0.3-0.1,0.6L293.3,390.7z"/>
	<path id="XMLID_319_" d="M312.2,379.3c-3.3-5.3-3.9-6.2-4.6-7.3c-0.8-1.1-1.4-1.6-2.5-1.2c-0.3,0.1-0.8,0.3-1.2,0.6
		c-0.3,0.2-0.5,0.2-0.7,0c-0.2-0.2,0-0.4,0.4-0.7c1.5-1,3.4-2,4.2-2.5c0.9-0.6,2.7-1.8,4.4-2.9c3.6-2.3,8.4-5.3,14.1-3.3
		c2.6,0.9,5.7,2.9,8.3,7.1c2.7,4.4,3.3,8.7,2.9,11.6c-0.3,2.5-1.8,6.8-7.1,10.1c-1,0.7-2.3,1.3-3.5,1.9c-1.2,0.6-2.2,1.1-3,1.6
		c-0.3,0.2-1,0.6-1.6,1.1c-0.7,0.4-1.4,1-2,1.3c-0.4,0.2-0.6,0.3-0.8,0c-0.1-0.2-0.1-0.4,0.3-0.6c0.4-0.3,0.7-0.6,1-0.8
		c0.5-0.5,0.2-1.3-0.4-2.4c-0.8-1.5-2.5-4.3-4.5-7.5L312.2,379.3 M318.2,380.9c2.3,3.7,4,6.3,4.4,7c0.6,0.8,1.5,2.2,2,2.4
		c0.8,0.4,2.4,0.4,4.6-1c3-1.8,4.5-3.8,5.1-6.6c0.7-3.1-0.7-6.6-3-10.1c-2.7-4.4-6-6.3-8.2-6.9c-4.6-1.4-8.1,0.2-10.4,1.6
		c-0.6,0.4-1.6,1.1-1.7,1.4c-0.2,0.3-0.2,0.5,0.1,0.9c0.7,1.2,2.6,4.2,4.3,7L318.2,380.9z"/>
	<path id="XMLID_359_" d="M225.4,146.9c-1.2,0-2.1,1.3-3.2,1.9c-5.6,2.6-11.4,0.6-17.8,1.4l-4.8,1.6c-1.3-0.1-2.3-1-3.6-1.2
		c-4.6,0-9-0.8-13.6-0.1c-3.5-0.5-6.9-1-9.7-3c-1.9-0.1-1.7,2.5-3.4,2.6c-1.3,0-2.6,0.4-3.9,0.1c-1.7-0.1-3.2,0.7-3.9,2l-0.4,8.5
		c0,0.6-0.4,1.3-1,1.5c-3.3,0.1-7.2-0.3-8.5,3.3c-0.3,1.6-0.7,3.6,0.4,4.9c1.9,1.9,4.8,2,7.3,1.9c1.9,0.3,1.5,2.4,1.5,3.7
		c0.3,7.2-0.6,14.1,0,21.8c-0.8,3.7-5.6,0.3-7.8,2.6c-0.9,1.2-1.6,2.6-1.5,4c-0.1,2,0.4,3.7,2.6,4.6c2.2,0.8,4.6,0.2,6.6,1.3
		c1,3.3-0.7,7.9,1.5,11.1c1.2,1,2.6,1.3,4,1.5c4.5,0,8.7,0.7,13-0.3c4.5,0.1,9-0.6,13.5,0.1c1.2,0.4,2.8,0.3,3.2,1.7
		c2,1.3,4.6,2.3,7.1,1c1.3-1.2,2.1-2.7,3.7-3.2l7.2,0.3c2-0.9,4.4-0.6,6.5-0.3c3.7,0.1,7.5,0.1,11.1,0c1.9-0.3,3.9-0.5,5.5-1.6
		c2.2-3.9-0.8-8.5,1.6-12.2c2.3-0.6,4.9,0.7,6.8-1c1.6-1.3,2.2-3.2,1.9-5.2c-1.3-3-4.8-3.4-7.7-3.3c-1.3-0.3-1.6-1.7-1.8-2.7
		c-0.3-6.5,0.1-12.3,0.2-18.6c0.7-2-0.6-3.9,0.9-5.6c2.1-1.6,5.3-0.1,7.1-2.6c0.1-1.6,0.9-4.2-0.7-5.5c-1.4-1.6-3.8-1.4-5.7-1.4
		c-4.2-3,0.1-7.4-2.3-11.1c-1.9-1.7-4.8-1.8-7.1-1.3c-1.6-0.1-2.7-1.4-3.7-2.6C226.2,147.1,225.8,146.9,225.4,146.9z M223.3,151.1
		c0.7,0.1,1.3,0.6,1.1,1.4c0.4,2.7-0.4,5.4-0.1,8.6c0,5.9,0.5,11.4,0,17.1c0,8.8-0.1,16.5,0.1,25c-0.1,1.7,0.4,4.3-1.4,5.5l-3.5,0.8
		c-6,0-12.5-0.4-18.4,0.6c-2.3-0.9-0.3-3.6-0.6-5.7c-0.6-11.7-0.6-23.9-0.5-35.4c0.1-3.2,0.7-6.8,0.1-10c0.6-2,0.3-4.9,2.8-5.6
		c2.7-0.7,6-0.3,8.9-0.5C215.8,153.3,220.1,153.1,223.3,151.1z M175.8,151.8c1,0,1.9,0.7,3,0.8c3.2,1.3,6.9,0.6,10.2,0.7
		c0.8,0.3,1.6-0.3,2.3-0.4c2-0.3,3.7,0.4,5.3,1.3l1,2.2c0.1,8.2,0.6,15.8,0,24.5v2.7l-0.3,13.9c0.4,4.2-0.3,7.8,0.6,12
		c-0.1,0.5-0.4,1-0.8,1c-4.9-1.3-9.8-1-15-1.3c-2.4,0.3-5.7,0.6-7.5-1.3c-1-1,0.2-2.2-0.4-3.2c0.4-7.9-0.1-17.1-0.3-24.8
		c0.3-5.9-0.1-11.4,0.4-17.1c-0.4-2.6,0.2-5.7-0.1-8.5c-0.3-0.8-0.2-1.7,0.6-2.3C175.1,151.9,175.5,151.8,175.8,151.8z M232.8,152.6
		c0.9-0.1,1.9,0.3,2,1.2c1.1,3.3,0,6.8,0.8,10.1c2.2,1.9,6.1-0.4,7.8,2.3c0.1,0.8-0.4,2-1.5,2.2c-1.9,0.9-4.9-0.7-6.1,1.5
		c-0.8,6-0.1,11.2-0.8,17.2c0.3,4.5-0.3,8.4,0.6,12.7c2,3.7,8.1-0.8,8.7,4.1c-1.7,3.6-7.1-0.5-8.9,3.1c-0.3,3.5-0.4,7.3-0.7,10.8
		c-0.3,0.8-1.1,1-1.8,1.5l-15.5,0.3c-3-0.6-6.2,0.9-9.2-0.1c-0.7,0.6-1.6,0-2.3-0.1c-0.1-0.3-0.3-0.8-0.1-1.2c2-0.9,4.8-0.8,7.1-0.7
		l10.1-0.3c3.2,0.1,7.6,1,9.3-2.3c1.2-7.3-0.1-14.9,0.5-22.5c0.2-9.1,0.1-17.3,0.1-26.6c-0.6-3.9,0.3-8.3-1-12.1
		C231.8,153,232.3,152.7,232.8,152.6z M227.6,152.9c1.2-0.1,1.7,1.4,2.1,2.1c0.6,1,0.9,2.4,0.7,3.4c0.4,12,0,24.3,0,36.3v15
		c0,0.6-0.2,1-0.7,1c-1.9-0.9-2.3-2.9-3-4.6c0.1-7.6,0.1-14.4,0.1-22c0.1-9.1-0.3-18.7,0.1-28c-0.1-1-0.4-2.3,0.1-3.1
		C227.3,152.9,227.4,152.9,227.6,152.9z M165.5,153.4c3.2,0,0,2.9,0.6,4.4l-0.3,7.5c-0.1,12.1,0.4,24.4-0.1,36.1
		c0.1,4.8,0.6,8.8,0.7,13.4c0.4,2.4,3,2,4.6,2.4c3.7-0.4,7.6,0.4,11.2,0.1c3.9-0.3,7.3-0.3,11.4,0c0.4,0.1,1,0.4,1,1
		c0.2,0.9-0.7,1.3-1.4,1.5c-9.1-0.3-18.5,0.1-27.2-0.3c-0.9-0.1-1.7-1-2-1.9c-0.4-3.3,0-7.2-0.6-10.4c-2.4-1.9-6.6,0.4-8.5-2.4
		c-0.4-0.7-0.1-1.6,0.5-2.2c2-1.6,4.9-0.3,7.2-1.2l0.7-0.7c1-9.4-0.2-18.4,0.7-27.5c-0.6-1.3-0.3-3-1.9-3.8
		c-1.6-0.1-3.3-0.1-4.9,0.1c-1.2-0.6-2.6-0.4-3.2-1.7c-0.2-1.2,0.7-2.2,1.7-2.6c2.3-1.4,6.6,1.1,7.5-2.7
		C164.5,159.9,162.7,155.6,165.5,153.4z M170.9,153.5c0.7-0.1,0.7,0.6,0.8,0.8c-0.4,0.7-0.7,1.5-0.1,2.2c0.4,4.5-0.7,9.3,0,13.7
		c-0.3,6.2,0,12.1,0,18.5c-0.3,4.8-0.2,10.6-0.2,15.4c0.4,3.2,0.4,6.8-2.4,8.5c-1.2-0.1-0.6-1.4-0.8-2c0.3-2.9-0.2-5.6,0-8.7
		c0.6-8.4-0.4-17,0.1-25.5v-18.6C168.7,156.2,169.1,154.3,170.9,153.5z M180.2,168.1c-1.4,0.6-4.2-0.4-4.3,1.6c0,0.8,1,1,1.5,1.6
		c2.6,3.5,3.2,7.6,4.8,11.3c0.8,1.9,0.9,4.1,2,5.8c0.4,2.3,0.8,5,3.2,5.9c0.9,0,1.3-0.7,1.7-1.3c2.3-7.1,3.8-14.6,6.1-21.5
		c0.3-0.6,1.1-1.2,0.8-2c-0.9-1-2.1-1-3.4-1c-0.7,0.3-1.7,0.6-1.6,1.7c2.6,3.5-0.3,7.8-0.7,11.4c-0.6,1.6-0.3,4.2-2.3,4.5
		c-1.3-1.4-1.5-3.3-2-4.9c-1.3-2.6-1.9-5.3-2.7-8.2c0-1.3,1-2,1.3-3.1C184,168,181.7,168.2,180.2,168.1z M214.2,168.1
		c-3.2,0.3-6.9,0.1-10.2,0.8c-1.1,1.4,1.2,2.3,1.6,3.7c0.1,5.8,0,11.4-0.1,17.4c0,1.6-2.6,3.2-0.6,4.3c3,0.1,5.9,0.4,8.8,0.6
		c1.7,0.1,3.7,0.3,4.7-1.4c0.6-1,1.3-2.3,0.6-3.5c0-0.7-0.9-1.4-1.5-1.1c-0.8,1.3-1.1,2.7-2.7,3.3c-1.7,0-4.4,1-5.5-0.7
		c-0.1-3.2-1.4-7.6,0.4-10.1c2.3-1.6,4.1,2.9,5.7,0.1c0.6-1.2,0.4-2.8-0.4-3.9c-1.7,0.1-2.6,2.5-4.6,1.6c-2.2-1.3-1-4.6-1.2-6.8
		c0.3-1.2,1.3-1.8,2.6-1.8c1.9-0.1,2.7,2,4.3,2.5c1-0.3,1-1.4,0.8-2.1C215.9,170.1,216.1,167.9,214.2,168.1z M226,210.4
		c1.5,0.2,1.9,2.2,2.9,3.2c0.3,0.6-0.4,1.3-1,1.3h-8.8c-3.5,0.1-6.2,0.3-9.8,0.3c-2.4-0.4-5.3,1.5-6.7-1.1c-0.4-0.8,0.6-1.4,1.1-1.7
		c2-0.8,3.9,0.6,6,0c5.1-0.3,11,0.3,15.5-1.8C225.6,210.4,225.8,210.4,226,210.4z M173.3,210.8c1.2-0.1,1.9,0.6,2.7,1
		c5.7,1,12.2,0,17.8,0.6c0.9,0.3,2,0.4,2.3,1.4c0,0.6,0,1.5-0.8,1.6c-7.1-1.3-14.4,0.3-21.4-0.6c-0.9-0.1-2.8,0.4-2.9-0.9
		C171.1,212.6,172,211.4,173.3,210.8z M200.1,215.6c1.4,0.4,2.7,1.7,3.2,3.2c-0.1,1.4-0.1,3.4-1.7,4c-0.9,0.4-2,0.3-2.7-0.3
		c-1.6-0.7-1-2.3-1.2-3.7C197.6,217.2,198.7,216.2,200.1,215.6z M327.3,147.4c-0.2,0-0.3,0.1-0.5,0.1c-6.6,5.2-16.1,1.2-23.9,3
		c-0.9,0.1-1.4,1.2-2.6,0.8c-6.1-3.3-13.4-0.3-19.7-1.8c-2.8-0.2-5.2-2.8-7.8-1.3c-1.2,4-5.9,0.8-8.6,1.8c-4.8,2-1.6,7.2-2.4,11.1
		c-1.6,3-5.7,0.2-7.8,2.6c-1.2,0.9-1.6,2.3-1.7,3.9c0.3,5.6,7.1,2.5,9.8,5.3c-0.7,3.5,0.4,7.1-0.3,10.1c-0.4,5,0.9,9.9,0.3,14.7
		c-2.5,2.6-7.8-0.2-9.1,4c-1.1,1.7,0,3.6,0.8,5.2c1.9,1.6,4.3,1.9,6.9,1.7c2.4,2.3,1,5.9,1.2,9.1c0.3,1.1-0.3,2.3,0.7,3.3
		c3,1,6.4,1,9.5,1c7.1,0,13.4,0,19.9,0.3c3.3-0.9,5.3,2.6,8.5,2.7c3,0.4,3.5-3.7,6.5-3l14.7,0.1c2.9,0.2,5.7-0.2,8.5,0.3
		c2.9-0.6,6.3,0.6,8.1-1.7c1-3.3,0.6-6.8,1-10.2c0.9-2.9,4.8-1,6.8-2.3c1.6-0.6,2.6-2,2.9-3.6c0.6-2.2-0.8-3.8-2.2-5.2
		c-1.7-1-3.6-0.4-5.5-0.8c-1.2-0.3-1.6-1.5-1.7-2.4c0.1-4.2-0.6-8.8,0.3-12.8c-0.3-3.5-0.4-6.8,0-10.1l0.6-0.8
		c2.3-0.6,5,0.3,6.8-1.4c1.2-1.6,2-3.8,1-5.5c-0.9-3.5-4.8-2.6-7.3-3c-2.4-1.2-1.1-3.7-1.3-5.7c0-1.9,0.8-4.5-1.3-5.9
		c-1.9-0.8-4.2-0.4-6-0.2C329.4,151.2,329.7,147.1,327.3,147.4L327.3,147.4z M275.7,151.2c1.7,0.2,3.5,0.3,4.9,1.2
		c4.3,1,8.8,0,13.1,0c1.3,0.3,3.1-0.2,3.9,1.4c1.2,4.2,1.2,7.9,0.7,12c0.3,8.4-0.6,17,0,25.2c0,2.3-0.3,4.3-0.1,6.6
		c-0.4,3.9-0.1,7.3-0.3,11.5c-0.9,0.7-2.2,0.1-3,0c-2.9-0.3-5.5-0.1-8.3-0.1c-1.3-0.3-2.6,0.1-3.8,0.3c-2.6-0.6-5.9,0.1-7.9-1.9
		c-0.7-1.9-0.1-3.5,0-5.5c0.1-10.7-0.9-20.9-0.1-31.7v-14.9C274.7,154,274.4,152,275.7,151.2z M325,151.2c0.7,0,0.8,0.7,0.8,1.3
		c-0.6,9.9,0.6,20.3-0.3,29.9c0.4,8.1-0.3,16.7-0.1,25.1c-0.9,1.7-3.4,1.7-5.5,1.7c-5,0.6-10.2-0.6-15,0c-1.6-0.1-3.3,2-4.5,0.4
		c0.1-4,0.6-7.6,0.7-11.5c-0.6-15.1-0.1-27.7,0.1-42.7c0.3-1.3,1.4-2.2,2.6-2.4C310.9,152.4,318.7,154.1,325,151.2z M266.4,152.4
		c0.5-0.1,1,0,1.6,0.3l0.4,0.4c-0.8,2.3-2,4.6-1.6,7.3c-0.1,7.1-0.1,13.5-0.1,20.2c0.3,10.1-0.4,22.6,0.3,33.1c0.1,1.2,1,1.7,2,2.3
		c8.1,0.7,16-0.1,24.2,0.8c0.6,0.3,1.3,0.3,1.6,1c0.2,0.7-0.6,1-1,1.3c-7.1,0.3-14.3-0.3-21.3,0.1c-2.6-0.6-6.6,1-7.8-2
		c-0.3-2.6,0-5.2-0.3-7.8c-0.1-1.3-1.2-2.4-2.2-3.2c-2.3-0.7-6,0.7-7-2.3c-0.2-1,0.5-1.9,1.6-2.2c2.2-0.6,5.4,0.3,6.7-2.2
		c1-5.9,0.6-12.1,0.8-18.1c-0.4-3,0.1-6.5-0.1-9.8c-1.2-3.6-5.3-2.2-8.1-2.9c-1.2-0.6-1.6-1.7-1-2.9c2.6-2.5,8.4,0.3,9.1-4.2
		c0.1-3-0.1-6,0.9-8.9C265.4,152.7,265.9,152.5,266.4,152.4z M334.1,153c1,0,2.2,0.1,2.7,1c1.6,3.5-1.9,9.7,3.3,10.8
		c1.9,0.6,4.7-0.6,5.6,1.7c0.3,0.6,0.1,1.6-0.1,2c-2.4,2.4-7.7-1-8.5,3.3c0.3,2.6,0.1,4.5,0,7.1v10.1c-0.4,3.5-0.6,7.9,0.6,11.3
		l1.1,0.8c2.5,0.6,5.6-0.4,7.3,1.6c0.2,1-0.1,2.3-1.1,2.6c-2.4,1.6-6.8-1.3-8.1,2.2c0,3.6-0.6,7-1,10.5l-1.3,1.2
		c-7.3,0.6-14.4,0-21.6,0.1l-7.1-0.1c-0.6-0.3-0.6-0.9-0.4-1.3c3-2,7.4-0.4,11-0.7c4.9,0.1,9.9,0,15-0.1c3.5-1.6,1.4-5.3,2.3-8.4
		c0.3-8.4,0.1-16.7,0.4-25c-0.1-8.6-0.3-17-0.1-25.4C334.3,156.2,331.8,154,334.1,153z M329.4,153.2c1.1,0.2,1.3,1.6,1.9,2.5
		l0.6,1.7c0.3,9.1,0.1,18.4-0.1,27.9c-0.3,4.6,0.3,8.6,0.1,13.4c-0.7,3.9,0.4,7.9-0.3,11.7c-0.4,0.4-1.1,0.4-1.6-0.1
		c-1.4-1.4-2.5-3.3-2-5.5c0-11.8,0-23.1,0.1-34.6c0.6-5.3-0.3-10.1,0-15.5c0.1-0.6,0-1.3,0.7-1.5
		C329.1,153.2,329.3,153.2,329.4,153.2z M271.1,153.9c0.1,0,0.3,0.1,0.5,0.4c0.6,1.7,0.6,3.7,0.6,5.6c-0.4,4.7,0.6,9.7-0.1,14.6
		c0.1,11.1,0,22.5-0.1,34c-0.7,1-0.7,2.6-2.2,2.9c-0.8,0.1-0.7-0.8-0.8-1.3c0.6-3.3-0.4-6.3,0.1-9.5c-0.5-12.5,0-23.8-0.1-35.6
		c0.3-3.6-0.6-6.6,1-9.8C270.4,154.8,270.7,153.9,271.1,153.9z M280.2,167.8c-0.6,0.1-1.1,0.7-1.1,1.3c0,0.9,1,1,1.6,1.6
		c1.2,1.9,0.9,4.2,0.9,6.2c-0.1,4.9-0.3,9.1-0.1,13.7c-0.3,1.4-2.8,2.1-1.5,3.9l5.8,0.1c3-1.2-1-2.7-0.8-4.5c-0.1-2-0.3-4.1,0.5-6
		c0.4-0.1,1-0.2,1.3,0.3c1.3,2.9,3.3,5.3,4.9,8.1c0.7,1.2,1.9,2.2,3.3,2c0.6-0.3,1.4-0.7,1.1-1.6c-2.7-2.2-3.2-5.5-5.6-8.1
		c-0.4-0.9-0.1-1.4,0-2.3c1.9-1.4,3.9-3.2,4.7-5.3c0.3-1.7,0-3.3-0.3-4.9c-0.8-2.6-3.7-3.9-6.2-4.4
		C285.8,167.7,283.1,168.1,280.2,167.8z M313.3,167.8c-1.7,0.6-4-0.5-5.6,0.7c-0.6,1.3,0.6,2.3,1,3.4c-0.1,6.2,0.9,12.5-0.1,18.9
		c-0.3,1-1.7,1.6-1.9,2.6c-0.3,0.4,0.3,1,0.7,1.1c2.2,0,4.1-0.1,6.1,0.1c2.6-1.2-0.4-2.7-0.6-4.1c0.1-6.5-0.4-12.3,0.1-18.5
		c0.6-1.2,2-2,1.7-3.4C314.6,167.9,313.9,167.9,313.3,167.8z M287.4,170.1c2-0.2,3.4,1.6,3.9,3.3c0.8,1.6,0.4,3.4-0.3,4.9
		c-1,1.3-2.3,2.6-4,2.4c-3.5-0.4-1.3-4.6-1.7-6.6c0.2-1.3-0.3-3.4,1.3-3.9C286.9,170.1,287.2,170.1,287.4,170.1z M273.7,210.6
		c3.6,0.5,7.4,1.5,11.1,1.2c3.6,0.1,8.2-0.6,11.3,0.6c0.7,0.7,1,1.6,0.3,2.4c-2.7,0.7-5.3-0.9-8.2-0.6l-15.4,0.1
		c-0.6-0.1-1.3-0.5-1.3-1.2C271.6,212,272.8,211.3,273.7,210.6z M326.3,210.7c1.7,0,2.8,1.4,3.8,2.7c0.3,0.6,0,1.6-0.8,1.3h-25.4
		c-0.7-0.3-1-1.3-0.8-2c3.3-1.6,7.5-0.7,11.1-0.7C318.2,212.2,322.5,212,326.3,210.7z M299.8,215c1.1,0,2.2,0.8,2.7,1.9
		c1,1.2,0.9,3,0.1,4.3c-0.7,0.7-1.9,0.5-2.7,0.6c-1-0.1-1.7-1-2.2-1.9c-0.4-1.3-0.3-2.7,0.5-3.7C298.6,215.4,299.2,215.1,299.8,215z
		 M213.8,245.8c-1.3,0.2-1.6,2.6-2.9,3.1c-2.9,1-6.5-0.8-8.9,1.5c-1.4,3,0.3,6.5-0.4,9.8c-0.4,2-2.9,1.1-4.5,1.3
		c-2.4,0-4.9,0.6-6.2,2.6c-0.4,1.3-0.6,2.7-0.3,4.2c1.3,2.9,4.9,2.7,7.6,3.3c1,0,2.1-0.3,2.9,0.6c0.4,4.2,0.1,8.1,0.3,12.1
		c-0.6,2.7,0.1,6,0,8.9c-0.1,1.2-0.5,2.5,0,3.5c-0.1,0.9-0.3,1.9-1.3,2c-2,0.3-4.4-0.6-6.1,0.4c-1.4,0.4-2.4,1.7-3,3
		c-0.3,1.3-0.3,2.8,0.3,3.9c2.1,2.6,5.5,2,8.5,2.3c3,0.7,1.6,4.6,1.9,6.9l0.3,4.8c0.9,3,4.6,2.2,6.9,3l4.9-0.6
		c3.2,0.9,6.9-0.6,10.1,0.1c3.6-1,7.5-0.4,11.5-0.4c2.5-0.2,5-0.2,7.6-0.3c2.2,1.5,4.5,3.3,7.3,2.4c2.3-2,5.6-2.4,8.5-2l6.1-0.3
		l1.1,0.5l7.3-0.3c4.5,0.1,9.1-0.5,14-0.2l4.2-0.3l3.7-1c2.6-2.4,0.9-6.5,1.5-9.7c0.5-1.2,0.1-2.7,1.6-3.2c3-0.4,7.1-0.1,8.2-3.6
		c0.3-1.4,0.4-3-0.3-4.2c-1.3-1.4-2.9-2-4.6-2.4c-1.7,0.3-4.2,0.4-5.2-1.1c0.7-8.6-0.3-16,0.4-24.6l1-1.3c2.9-0.6,6.5-0.1,8-3.3
		c0.6-1.4,0.1-3.2-0.9-4.5c-1.7-3.2-5.9-0.6-8.2-2.4c-1.4-3,0.9-6.3-0.3-9.7c-1.9-3.3-6-2.2-9.2-2.2c-1.7-1.4-3.9-1.7-6.1-2.1
		c-3.2,2-6.9,2.5-10.8,2.5c-4.8,0.6-9.4-0.6-14-0.3c-2.8-0.1-5.9-0.4-7.9,1.7l-3.6-1.6c-8.9-1.4-18.4,2.2-27-1L215,246
		C214.5,245.8,214.1,245.7,213.8,245.8z M281,249.7c0.8-0.1,1.7,0,1.5,1c-1.3,9.5,0.3,18.5-0.1,28.1c0.4,7.5-0.4,14.4,0,21.9
		c-0.3,1.9,0.6,4.2-0.7,5.7c-2.8,1.7-6.3,2-9.7,1.9l-16.8-0.1c-2.2-0.3-3.5,2-5.7,1.1c-0.7-2,1-4,0-6c0.3-3.9,0.1-6.8-0.1-10.7
		c0.3-3-0.7-5.9,0.4-8.6c0.3-0.6,0.9-0.1,1.3,0.1c1.4,2,2,4.9,1.1,7.3c0.3,0.9,1.3,1,2.2,1c1.9-0.1,4.5,1,5.6-0.7
		c-0.3-2.3-3.7-2.6-3.7-5.2c-0.4-4.8-3.2-8.7-3.8-13.4c-0.8-2.9-1.7-5.7-2.7-8.5c-0.1-3.9-0.1-7.2,0-11.1c0.4-2.6,3.5-1.7,5.4-2.4
		c4.9,0,9.6,0.9,14.5,0.6c3.7,0.2,7.5-0.3,10.5-2C280.4,249.8,280.7,249.8,281,249.7z M215.3,250.1c2,0.1,3.6,1,5.3,1.6
		c8.1,0.8,16.1-1.4,24.1,0.3c3.3,1.6,1.4,5.2,1.8,7.9c0,3.7-0.3,7.7-1.4,11.1c-2.2,6.1-2.9,12.4-5,18.3c-0.9,1-3.2,1.3-2.4,3
		c1.2,0.7,3,0.6,4.3,0.4c0.9,0.1,1.5-0.3,1.6-1c-0.3-2.6-1-5.5,0.8-7.5c0.4-0.4,1.3-0.7,1.9-0.3c1.2,3.6,0,7,0.3,10.8
		c-0.1,3.7,0.4,8.2,0.1,12c0,0.7,0.1,1.7-0.7,2c-2.3,0.4-4.5-0.7-6.8-0.3l-5,0.1c-3.2,0-6.5-0.3-9.7-0.1c-3,0-6.3,0.1-8.8-1.5
		l-0.8-1c-0.1-11.8,0.1-23.1-0.3-35.2c0.1-6.2,0.8-13-0.1-19C215,251.2,214.4,250.5,215.3,250.1z M291.5,250.9
		c1.3,0,2.4,1.1,2.5,2.5c-0.1,3-0.6,6.6,1,9.2c2.2,1.2,5.2,0.4,7.5,1.6c0.6,0.7,0.3,1.6,0.1,2.3c-2.4,2.4-7.5-0.5-8.6,3.7
		c-0.4,5.3,0.3,9.9-0.1,15.1c0.1,4.5-0.7,10,0.4,13.8c2.2,2.6,6.3,0.4,8.8,2.6c0.6,0.6,0.4,1.6,0,2.3c-2,2.7-6.7-0.4-8.3,2.7
		c-0.6,3.3-1.1,7-1.1,10.5c-1.9,2.3-5,0.8-7.5,1.6c-10.8-0.3-21,0.6-31.7,0c-0.6-0.4-1.5-1.3-0.8-2l1.3-0.6
		c10.7-0.4,21.9,0.3,32.4-0.7c1.3-0.1,2.8-0.7,3.2-2c0.7-7.9,0.3-16.6,0.3-24.3c0.6-11.1-0.1-23,0-34.1c0-1.4-2.6-2.7-0.8-3.9
		C290.6,251,291.1,250.9,291.5,250.9z M207.2,251.5c0.6,0.1,1.1,0.5,1.1,1.3c-0.1,1.4-1.5,2.3-1.7,3.7c-0.6,8.4,0.1,17.4,0,25.7
		c0,4.6,0.3,8.6-0.3,13.1c0.4,2,0,4.8,0,6.9c0.4,4.8,0.3,8.7,0.7,13.3l1,0.8c7.2,0.2,14.8-0.8,22.5-0.1l11.5,0.1
		c0.3,0.5,1,1.3,0.3,1.9c-2,0.7-4.2,0.3-6.4,0.7c-4.4-0.4-8.7,0.9-13.2,0c-5.5,0-11,0.9-16.4,0.4c-0.9-0.1-1.6-1-1.9-1.6
		c-0.6-3.6,0.3-7.1-0.8-10.3c-2-3-6.4-1-8.9-2.7c-0.6-0.3-1-1.3-0.6-1.9c2.3-2.3,5.8-1.1,8.7-2c1.2-0.9,1-2.5,1.1-3.6
		c0.1-7.3,0-14.3,0.1-21.2c-0.1-2.6,0.6-5.8-2-7.3c-2.7-1-6.8,1.3-8.2-2.2c0-1,0.7-1.9,1.6-2.2c3-0.9,7.6,0.8,8.6-3.3
		c-0.3-2.9,0.1-5.3,0.4-8.2C204.9,252.1,206.2,251.4,207.2,251.5z M285.7,251.8c1.2,0.6,2,2,2.6,3.2c0.7,12.8,0.4,26.2,0.4,38.8
		l-0.3,16.5c-0.3,0.6-0.8,0.2-1.1-0.1c-1.6-1.9-3.2-4.3-2.3-7c-0.2-8.1-0.3-17.9-0.1-25.8l0.1-5v-8.4c-0.3-3.6-0.2-7.6,0-11.2
		L285.7,251.8z M210.9,252.9c2.4,0.4,0.4,3,1,4.6c0.1,15.4,0.1,30.7,0.1,47.2c0.4,2.3-0.7,4.6-2.4,6.1c-0.4,0-0.8-0.3-0.8-0.8
		l0.1-5.7c0-16.3-0.3-32.3,0-48C209.2,255.1,210.2,253.9,210.9,252.9z M236.9,264.6c-2.2,1.9-5.1,1.3-7.8,1.1
		c-1.6,0.3-3.6,0.4-4.9-0.7c-0.7-0.4-1.7-0.3-2,0.4c-0.4,1.9-1.8,3.7-1,5.6c0.4,0.6,1,0.4,1.4,0.1c0.6-1.6,2-2.7,3.6-3.2
		c0.7,0.1,1.6,0.9,2,1.5l-0.4,7c0.1,3.5-0.2,7.2,0.1,10.5c0.7,2.3-3.3,3.3-1.4,5.6c0.7,0.3,1.8,0.4,2.5,0c1.6,0,3.5,0.7,4.6-0.6
		c0.9-1.3-0.7-2-1.1-3c-0.1-4.3-0.2-9.4-0.5-13.8c0.7-2.2-0.8-4.8,0.6-6.5c2.1-1.2,2.2,2.1,4.2,1.9c1.6-0.8,0.8-3.2,1.6-4.8
		C238.5,265.2,237.6,264.6,236.9,264.6z M273.4,265.8c-0.7,0-1.4,0.3-1.9,0.7c-2.8-0.3-6.1-0.2-7.7,2.4c-1,1.9-1.7,3.9-1,6.1
		c2,5,8.8,5.4,10.6,10.6c0.1,1.6-0.4,3.2-1.8,4c-1.9,0.3-3.9,0.3-5.2-1.3c-1.7-0.9-0.9-3.4-2.9-3.4c-2.2,1-0.5,3.9-1,5.9
		c0.2,0.4,0.3,1.2,1,1c2.2-1.9,4.1,0.8,6.4,0.7c2-0.3,4.1-0.7,5.5-2.4c1.4-1.6,1.9-4,1.7-6c-1-6.1-8.1-6.4-11-11
		c-0.6-1-0.4-2.1,0.1-3.2c1.3-1.4,3.2-0.4,4.8-0.3c1.3,0.7,1.8,3.4,3.6,2.3c0.6-1.5,0.4-3.3,0-4.8
		C274.6,266.2,274,265.9,273.4,265.8z M246.6,274c0.4-0.1,0.6,0.4,0.8,0.8l-0.5,5.9c-0.1,0.6-1,0.7-1.4,0.3
		c-1.2-2.1,0.3-4.6,0.7-6.8C246.3,274.1,246.5,274,246.6,274z M249.6,279.3c0.4,0,0.8,0.7,0.6,1.2c-0.1,0.1-0.1,0.4-0.4,0.4
		c-0.7,0.1-0.6-0.5-0.6-1c0-0.3,0.1-0.5,0.2-0.6L249.6,279.3z M214.1,309c1.6,0.3,2.8,1.3,4.3,1.7c7.2,0.6,14.8,0.3,22.2,0.3
		c1.4,0,3.3-0.2,4.5,0.8c0.3,0.4,0,1-0.3,1.5l-1,0.6l-23.4-0.1c-2.7,0.1-5.6-0.9-8.2-0.3c-0.4,0-1.3,0.1-1.3-0.6
		C211.5,311.1,212.5,309.8,214.1,309z M283.1,309c1.4,0,2.3,2.4,3.3,3.5c0.3,1.2-1.2,1.1-1.9,1.3c-5.3-0.3-10.2,0-15.5,0
		c-5.2,0.3-10.7-0.1-16,0c-0.7-0.5-1.4-1.3-0.8-2c2.4-1.3,5.6-0.8,8.5-0.8c7.1-0.3,14.2,0.8,20.9-1.1
		C282.1,309.2,282.6,309,283.1,309z M248.5,313.7c0.9,0,1.7,0.9,2,1.8c0.8,1.4,0,3,0.1,4.7c-0.4,0.9-1.5,1-2.4,1c-1,0-2-1-2.3-2
		c-1-1.2-0.3-2.7,0-4c0.7-0.6,1.2-1.3,2.2-1.5C248.2,313.7,248.4,313.7,248.5,313.7z"/>
	<path id="XMLID_362_" d="M137.9,116.6v1.7v76.3c0,119.7,111.1,179.5,111.1,179.5l0.8,0.4l0.8-0.4c0,0,111.1-59.8,111.1-179.5v-76.3
		v-1.7h-1.7H139.6H137.9z M141.2,119.9c3.3,0,213.7,0,217,0c0,3.2,0,74.6,0,74.6c0,115.1-104,173.6-108.5,176
		c-4.5-2.5-108.5-60.9-108.5-176C141.2,194.5,141.2,123.2,141.2,119.9z"/>
	<path id="XMLID_367_" class="st1" d="M141.2,119.9c3.3,0,213.7,0,217,0c0,3.2,0,74.6,0,74.6c0,115.1-104,173.6-108.5,176
		c-4.5-2.5-108.5-60.9-108.5-176C141.2,194.5,141.2,123.2,141.2,119.9z M225.4,146.9c-1.2,0-2.1,1.3-3.2,1.9
		c-5.6,2.6-11.4,0.6-17.8,1.4l-4.8,1.6c-1.3-0.1-2.3-1-3.6-1.2c-4.6,0-9-0.8-13.6-0.1c-3.5-0.5-6.9-1-9.7-3
		c-1.9-0.1-1.7,2.5-3.4,2.6c-1.3,0-2.6,0.4-3.9,0.1c-1.7-0.1-3.2,0.7-3.9,2l-0.4,8.5c0,0.6-0.4,1.3-1,1.5c-3.3,0.1-7.2-0.3-8.5,3.3
		c-0.3,1.6-0.7,3.6,0.4,4.9c1.9,1.9,4.8,2,7.3,1.9c1.9,0.3,1.5,2.4,1.5,3.7c0.3,7.2-0.6,14.1,0,21.8c-0.8,3.7-5.6,0.3-7.8,2.6
		c-0.9,1.2-1.6,2.6-1.5,4c-0.1,2,0.4,3.7,2.6,4.6c2.2,0.8,4.6,0.2,6.6,1.3c1,3.3-0.7,7.9,1.5,11.1c1.2,1,2.6,1.3,4,1.5
		c4.5,0,8.7,0.7,13-0.3c4.5,0.1,9-0.6,13.5,0.1c1.2,0.4,2.8,0.3,3.2,1.7c2,1.3,4.6,2.3,7.1,1c1.3-1.2,2.1-2.7,3.7-3.2l7.2,0.3
		c2-0.9,4.4-0.6,6.5-0.3c3.7,0.1,7.5,0.1,11.1,0c1.9-0.3,3.9-0.5,5.5-1.6c2.2-3.9-0.8-8.5,1.6-12.2c2.3-0.6,4.9,0.7,6.8-1
		c1.6-1.3,2.2-3.2,1.9-5.2c-1.3-3-4.8-3.4-7.7-3.3c-1.3-0.3-1.6-1.7-1.8-2.7c-0.3-6.5,0.1-12.3,0.2-18.6c0.7-2-0.6-3.9,0.9-5.6
		c2.1-1.6,5.3-0.1,7.1-2.6c0.1-1.6,0.9-4.2-0.7-5.5c-1.4-1.6-3.8-1.4-5.7-1.4c-4.2-3,0.1-7.4-2.3-11.1c-1.9-1.7-4.8-1.8-7.1-1.3
		c-1.6-0.1-2.7-1.4-3.7-2.6C226.2,147.1,225.8,146.9,225.4,146.9z M327.3,147.4c-0.2,0-0.3,0.1-0.5,0.1c-6.6,5.2-16.1,1.2-23.9,3
		c-0.9,0.1-1.4,1.2-2.6,0.8c-6.1-3.3-13.4-0.3-19.7-1.8c-2.8-0.2-5.2-2.8-7.8-1.3c-1.2,4-5.9,0.8-8.6,1.8c-4.8,2-1.6,7.2-2.4,11.1
		c-1.6,3-5.7,0.2-7.8,2.6c-1.2,0.9-1.6,2.3-1.7,3.9c0.3,5.6,7.1,2.5,9.8,5.3c-0.7,3.5,0.4,7.1-0.3,10.1c-0.4,5,0.9,9.9,0.3,14.7
		c-2.5,2.6-7.8-0.2-9.1,4c-1.1,1.7,0,3.6,0.8,5.2c1.9,1.6,4.3,1.9,6.9,1.7c2.4,2.3,1,5.9,1.2,9.1c0.3,1.1-0.3,2.3,0.7,3.3
		c3,1,6.4,1,9.5,1c7.1,0,13.4,0,19.9,0.3c3.3-0.9,5.3,2.6,8.5,2.7c3,0.4,3.5-3.7,6.5-3l14.7,0.1c2.9,0.2,5.7-0.2,8.5,0.3
		c2.9-0.6,6.3,0.6,8.1-1.7c1-3.3,0.6-6.8,1-10.2c0.9-2.9,4.8-1,6.8-2.3c1.6-0.6,2.6-2,2.9-3.6c0.6-2.2-0.8-3.8-2.2-5.2
		c-1.7-1-3.6-0.4-5.5-0.8c-1.2-0.3-1.6-1.5-1.7-2.4c0.1-4.2-0.6-8.8,0.3-12.8c-0.3-3.5-0.4-6.8,0-10.1l0.6-0.8
		c2.3-0.6,5,0.3,6.8-1.4c1.2-1.6,2-3.8,1-5.5c-0.9-3.5-4.8-2.6-7.3-3c-2.4-1.2-1.1-3.7-1.3-5.7c0-1.9,0.8-4.5-1.3-5.9
		c-1.9-0.8-4.2-0.4-6-0.2C329.4,151.2,329.7,147.1,327.3,147.4L327.3,147.4z M213.8,245.8c-1.3,0.2-1.6,2.6-2.9,3.1
		c-2.9,1-6.5-0.8-8.9,1.5c-1.4,3,0.3,6.5-0.4,9.8c-0.4,2-2.9,1.1-4.5,1.3c-2.4,0-4.9,0.6-6.2,2.6c-0.4,1.3-0.6,2.7-0.3,4.2
		c1.3,2.9,4.9,2.7,7.6,3.3c1,0,2.1-0.3,2.9,0.6c0.4,4.2,0.1,8.1,0.3,12.1c-0.6,2.7,0.1,6,0,8.9c-0.1,1.2-0.5,2.5,0,3.5
		c-0.1,0.9-0.3,1.9-1.3,2c-2,0.3-4.4-0.6-6.1,0.4c-1.4,0.4-2.4,1.7-3,3c-0.3,1.3-0.3,2.8,0.3,3.9c2.1,2.6,5.5,2,8.5,2.3
		c3,0.7,1.6,4.6,1.9,6.9l0.3,4.8c0.9,3,4.6,2.2,6.9,3l4.9-0.6c3.2,0.9,6.9-0.6,10.1,0.1c3.6-1,7.5-0.4,11.5-0.4
		c2.5-0.2,5-0.2,7.6-0.3c2.2,1.5,4.5,3.3,7.3,2.4c2.3-2,5.6-2.4,8.5-2l6.1-0.3l1.1,0.5l7.3-0.3c4.5,0.1,9.1-0.5,14-0.2l4.2-0.3
		l3.7-1c2.6-2.4,0.9-6.5,1.5-9.7c0.5-1.2,0.1-2.7,1.6-3.2c3-0.4,7.1-0.1,8.2-3.6c0.3-1.4,0.4-3-0.3-4.2c-1.3-1.4-2.9-2-4.6-2.4
		c-1.7,0.3-4.2,0.4-5.2-1.1c0.7-8.6-0.3-16,0.4-24.6l1-1.3c2.9-0.6,6.5-0.1,8-3.3c0.6-1.4,0.1-3.2-0.9-4.5c-1.7-3.2-5.9-0.6-8.2-2.4
		c-1.4-3,0.9-6.3-0.3-9.7c-1.9-3.3-6-2.2-9.2-2.2c-1.7-1.4-3.9-1.7-6.1-2.1c-3.2,2-6.9,2.5-10.8,2.5c-4.8,0.6-9.4-0.6-14-0.3
		c-2.8-0.1-5.9-0.4-7.9,1.7l-3.6-1.6c-8.9-1.4-18.4,2.2-27-1L215,246C214.5,245.8,214.1,245.7,213.8,245.8z"/>
	<path id="XMLID_368_" class="st2" d="M232.8,152.6c0.9-0.1,1.9,0.3,2,1.2c1.1,3.3,0,6.8,0.8,10.1c2.2,1.9,6.1-0.4,7.8,2.3
		c0.1,0.8-0.4,2-1.5,2.2c-1.9,0.9-4.9-0.7-6.1,1.5c-0.8,6-0.1,11.2-0.8,17.2c0.3,4.5-0.3,8.4,0.6,12.7c2,3.7,8.1-0.8,8.7,4.1
		c-1.7,3.6-7.1-0.5-8.9,3.1c-0.3,3.5-0.4,7.3-0.7,10.8c-0.3,0.8-1.1,1-1.8,1.5l-15.5,0.3c-3-0.6-6.2,0.9-9.2-0.1
		c-0.7,0.6-1.6,0-2.3-0.1c-0.1-0.3-0.3-0.8-0.1-1.2c2-0.9,4.8-0.8,7.1-0.7l10.1-0.3c3.2,0.1,7.6,1,9.3-2.3
		c1.2-7.3-0.1-14.9,0.5-22.5c0.2-9.1,0.1-17.3,0.1-26.6c-0.6-3.9,0.3-8.3-1-12.1C231.8,153,232.3,152.7,232.8,152.6z"/>
	<path id="XMLID_369_" class="st2" d="M165.5,153.4c3.2,0,0,2.9,0.6,4.4l-0.3,7.5c-0.1,12.1,0.4,24.4-0.1,36.1
		c0.1,4.8,0.6,8.8,0.7,13.4c0.4,2.4,3,2,4.6,2.4c3.7-0.4,7.6,0.4,11.2,0.1c3.9-0.3,7.3-0.3,11.4,0c0.4,0.1,1,0.4,1,1
		c0.2,0.9-0.7,1.3-1.4,1.5c-9.1-0.3-18.5,0.1-27.2-0.3c-0.9-0.1-1.7-1-2-1.9c-0.4-3.3,0-7.2-0.6-10.4c-2.4-1.9-6.6,0.4-8.5-2.4
		c-0.4-0.7-0.1-1.6,0.5-2.2c2-1.6,4.9-0.3,7.2-1.2l0.7-0.7c1-9.4-0.2-18.4,0.7-27.5c-0.6-1.3-0.3-3-1.9-3.8
		c-1.6-0.1-3.3-0.1-4.9,0.1c-1.2-0.6-2.6-0.4-3.2-1.7c-0.2-1.2,0.7-2.2,1.7-2.6c2.3-1.4,6.6,1.1,7.5-2.7
		C164.5,159.9,162.7,155.6,165.5,153.4z"/>
	<path id="XMLID_370_" class="st2" d="M266.4,152.4c0.5-0.1,1,0,1.6,0.3l0.4,0.4c-0.8,2.3-2,4.6-1.6,7.3c-0.1,7.1-0.1,13.5-0.1,20.2
		c0.3,10.1-0.4,22.6,0.3,33.1c0.1,1.2,1,1.7,2,2.3c8.1,0.7,16-0.1,24.2,0.8c0.6,0.3,1.3,0.3,1.6,1c0.2,0.7-0.6,1-1,1.3
		c-7.1,0.3-14.3-0.3-21.3,0.1c-2.6-0.6-6.6,1-7.8-2c-0.3-2.6,0-5.2-0.3-7.8c-0.1-1.3-1.2-2.4-2.2-3.2c-2.3-0.7-6,0.7-7-2.3
		c-0.2-1,0.5-1.9,1.6-2.2c2.2-0.6,5.4,0.3,6.7-2.2c1-5.9,0.6-12.1,0.8-18.1c-0.4-3,0.1-6.5-0.1-9.8c-1.2-3.6-5.3-2.2-8.1-2.9
		c-1.2-0.6-1.6-1.7-1-2.9c2.6-2.5,8.4,0.3,9.1-4.2c0.1-3-0.1-6,0.9-8.9C265.4,152.7,265.9,152.5,266.4,152.4z"/>
	<path id="XMLID_371_" class="st2" d="M334.1,153c1,0,2.2,0.1,2.7,1c1.6,3.5-1.9,9.7,3.3,10.8c1.9,0.6,4.7-0.6,5.6,1.7
		c0.3,0.6,0.1,1.6-0.1,2c-2.4,2.4-7.7-1-8.5,3.3c0.3,2.6,0.1,4.5,0,7.1v10.1c-0.4,3.5-0.6,7.9,0.6,11.3l1.1,0.8
		c2.5,0.6,5.6-0.4,7.3,1.6c0.2,1-0.1,2.3-1.1,2.6c-2.4,1.6-6.8-1.3-8.1,2.2c0,3.6-0.6,7-1,10.5l-1.3,1.2c-7.3,0.6-14.4,0-21.6,0.1
		l-7.1-0.1c-0.6-0.3-0.6-0.9-0.4-1.3c3-2,7.4-0.4,11-0.7c4.9,0.1,9.9,0,15-0.1c3.5-1.6,1.4-5.3,2.3-8.4c0.3-8.4,0.1-16.7,0.4-25.1
		c-0.1-8.6-0.3-17-0.1-25.4C334.3,156.2,331.8,154,334.1,153z"/>
	<path id="XMLID_372_" class="st2" d="M291.5,250.9c1.3,0,2.4,1.1,2.5,2.5c-0.1,3-0.6,6.6,1,9.2c2.2,1.2,5.2,0.4,7.5,1.6
		c0.6,0.7,0.3,1.6,0.1,2.3c-2.4,2.4-7.5-0.5-8.6,3.7c-0.4,5.3,0.3,9.9-0.1,15.1c0.1,4.5-0.7,10,0.4,13.8c2.2,2.6,6.3,0.4,8.8,2.6
		c0.6,0.6,0.4,1.6,0,2.3c-2,2.7-6.7-0.4-8.3,2.7c-0.6,3.3-1.1,7-1.1,10.5c-1.9,2.3-5,0.8-7.5,1.6c-10.8-0.3-21,0.6-31.7,0
		c-0.6-0.4-1.5-1.3-0.8-2l1.3-0.6c10.7-0.4,21.9,0.3,32.4-0.7c1.3-0.1,2.8-0.7,3.2-2c0.7-7.9,0.3-16.6,0.3-24.3
		c0.6-11.1-0.1-23,0-34.1c0-1.4-2.6-2.7-0.8-3.9C290.6,251,291.1,250.9,291.5,250.9z"/>
	<path id="XMLID_373_" class="st2" d="M207.2,251.5c0.6,0.1,1.1,0.5,1.1,1.3c-0.1,1.4-1.5,2.3-1.7,3.7c-0.6,8.4,0.1,17.4,0,25.7
		c0,4.6,0.3,8.6-0.3,13.1c0.4,2,0,4.8,0,6.9c0.4,4.8,0.3,8.7,0.7,13.3l1,0.8c7.2,0.2,14.8-0.8,22.5-0.1l11.5,0.1
		c0.3,0.5,1,1.3,0.3,1.9c-2,0.7-4.2,0.3-6.4,0.7c-4.4-0.4-8.7,0.9-13.2,0c-5.5,0-11,0.9-16.4,0.4c-0.9-0.1-1.6-1-1.9-1.6
		c-0.6-3.6,0.3-7.1-0.8-10.3c-2-3-6.4-1-8.9-2.7c-0.6-0.3-1-1.3-0.6-1.9c2.3-2.3,5.8-1.1,8.7-2c1.2-0.9,1-2.5,1.1-3.6
		c0.1-7.3,0-14.3,0.1-21.2c-0.1-2.6,0.6-5.8-2-7.3c-2.7-1-6.8,1.3-8.2-2.2c0-1,0.7-1.9,1.6-2.2c3-0.9,7.6,0.8,8.6-3.3
		c-0.3-2.9,0.1-5.3,0.4-8.2C204.9,252.1,206.2,251.4,207.2,251.5z"/>
	<path id="XMLID_376_" class="st0" d="M175.8,151.8c1,0,1.9,0.7,3,0.8c3.2,1.3,6.9,0.6,10.2,0.7c0.8,0.3,1.6-0.3,2.3-0.4
		c2-0.3,3.7,0.4,5.3,1.3l1,2.2c0.1,8.2,0.6,15.8,0,24.5v2.7l-0.3,13.9c0.4,4.2-0.3,7.8,0.6,12c-0.1,0.5-0.4,1-0.8,1
		c-4.9-1.3-9.8-1-15-1.3c-2.4,0.3-5.7,0.6-7.5-1.3c-1-1,0.2-2.2-0.4-3.2c0.4-7.9-0.1-17.1-0.3-24.8c0.3-5.9-0.1-11.4,0.4-17.1
		c-0.4-2.6,0.2-5.7-0.1-8.5c-0.3-0.8-0.2-1.7,0.6-2.3C175.1,151.9,175.5,151.8,175.8,151.8z M180.2,168.1c-1.4,0.6-4.2-0.4-4.3,1.6
		c0,0.8,1,1,1.5,1.6c2.6,3.5,3.2,7.6,4.8,11.3c0.8,1.9,0.9,4.1,2,5.8c0.4,2.3,0.8,5,3.2,5.9c0.9,0,1.3-0.7,1.7-1.3
		c2.3-7.1,3.8-14.6,6.1-21.5c0.3-0.6,1.1-1.2,0.8-2c-0.9-1-2.1-1-3.4-1c-0.7,0.3-1.7,0.6-1.6,1.7c2.6,3.5-0.3,7.8-0.7,11.4
		c-0.6,1.6-0.3,4.2-2.3,4.5c-1.3-1.4-1.5-3.3-2-4.9c-1.3-2.6-1.9-5.3-2.7-8.2c0-1.3,1-2,1.3-3.1C184,168,181.7,168.2,180.2,168.1z"
		/>
	<path id="XMLID_379_" class="st0" d="M223.3,151.1c0.7,0.1,1.3,0.6,1.1,1.4c0.4,2.7-0.4,5.4-0.1,8.6c0,5.9,0.5,11.4,0,17.1
		c0,8.8-0.1,16.5,0.1,25c-0.1,1.7,0.4,4.3-1.4,5.5l-3.5,0.8c-6,0-12.5-0.4-18.4,0.6c-2.3-0.9-0.3-3.6-0.6-5.7
		c-0.6-11.7-0.6-23.9-0.5-35.4c0.1-3.2,0.7-6.8,0.1-10c0.6-2,0.3-4.9,2.8-5.6c2.7-0.7,6-0.3,8.9-0.5
		C215.8,153.3,220.1,153.1,223.3,151.1z M214.2,168.1c-3.2,0.3-6.9,0.1-10.2,0.8c-1.1,1.4,1.2,2.3,1.6,3.7c0.1,5.8,0,11.4-0.1,17.4
		c0,1.6-2.6,3.2-0.6,4.3c3,0.1,5.9,0.4,8.8,0.6c1.7,0.1,3.7,0.3,4.7-1.4c0.6-1,1.3-2.3,0.6-3.5c0-0.7-0.9-1.4-1.5-1.1
		c-0.8,1.3-1.1,2.7-2.7,3.3c-1.7,0-4.4,1-5.5-0.7c-0.1-3.2-1.4-7.6,0.4-10.1c2.3-1.6,4.1,2.9,5.7,0.1c0.6-1.2,0.4-2.7-0.4-3.9
		c-1.7,0.1-2.6,2.5-4.6,1.6c-2.2-1.3-1-4.6-1.2-6.8c0.3-1.2,1.3-1.8,2.6-1.8c1.9-0.1,2.7,2,4.3,2.5c1-0.3,1-1.4,0.8-2.1
		C215.9,170.1,216.1,167.9,214.2,168.1z"/>
	<path id="XMLID_382_" class="st0" d="M325,151.2c0.7,0,0.8,0.7,0.8,1.3c-0.6,9.9,0.6,20.3-0.3,29.9c0.4,8.1-0.3,16.7-0.1,25.1
		c-0.9,1.7-3.4,1.7-5.5,1.7c-5,0.6-10.2-0.6-15,0c-1.6-0.1-3.3,2-4.5,0.4c0.1-4,0.6-7.6,0.7-11.5c-0.6-15.1-0.1-27.7,0.1-42.7
		c0.3-1.3,1.4-2.2,2.6-2.4C310.9,152.4,318.7,154.1,325,151.2z M313.3,167.8c-1.7,0.6-4-0.5-5.6,0.7c-0.6,1.3,0.6,2.3,1,3.4
		c-0.1,6.2,0.9,12.5-0.1,18.9c-0.3,1-1.7,1.6-1.9,2.6c-0.3,0.4,0.3,1,0.7,1.1c2.2,0,4.1-0.1,6.1,0.1c2.6-1.2-0.4-2.7-0.6-4.1
		c0.1-6.5-0.4-12.3,0.1-18.5c0.6-1.2,2-2,1.7-3.4C314.6,167.9,313.9,167.9,313.3,167.8z"/>
	<path id="XMLID_386_" class="st0" d="M275.7,151.2c1.7,0.2,3.5,0.3,4.9,1.2c4.3,1,8.8,0,13.1,0c1.3,0.3,3.1-0.2,3.9,1.4
		c1.2,4.2,1.2,7.9,0.7,12c0.3,8.4-0.6,17,0,25.2c0,2.3-0.3,4.3-0.1,6.6c-0.4,3.9-0.1,7.3-0.3,11.5c-0.9,0.7-2.2,0.1-3,0
		c-2.9-0.3-5.5-0.1-8.3-0.1c-1.3-0.3-2.6,0.1-3.8,0.3c-2.6-0.6-5.9,0.1-7.9-1.9c-0.7-1.9-0.1-3.5,0-5.5c0.1-10.7-0.9-20.9-0.1-31.7
		v-14.9C274.7,154,274.4,152,275.7,151.2z M280.2,167.8c-0.6,0.1-1.1,0.7-1.1,1.3c0,0.9,1,1,1.6,1.6c1.2,1.9,0.9,4.2,0.9,6.2
		c-0.1,4.9-0.3,9.1-0.1,13.7c-0.3,1.4-2.8,2.1-1.5,3.9l5.8,0.1c3-1.2-1-2.7-0.8-4.5c-0.1-2-0.3-4.1,0.5-6c0.4-0.1,1-0.2,1.3,0.3
		c1.3,2.9,3.3,5.3,4.9,8.1c0.7,1.2,1.9,2.2,3.3,2c0.6-0.3,1.4-0.7,1.1-1.6c-2.7-2.2-3.2-5.5-5.6-8.1c-0.4-0.9-0.1-1.4,0-2.3
		c1.9-1.4,3.9-3.2,4.7-5.3c0.3-1.7,0-3.3-0.3-4.9c-0.8-2.6-3.7-3.9-6.2-4.4C285.8,167.7,283.1,168.1,280.2,167.8z M287.4,170.1
		c2-0.2,3.4,1.6,3.9,3.3c0.8,1.6,0.4,3.4-0.3,4.9c-1,1.3-2.3,2.6-4,2.4c-3.5-0.4-1.3-4.6-1.7-6.6c0.2-1.3-0.3-3.4,1.3-3.9
		C286.9,170.1,287.2,170.1,287.4,170.1z"/>
	<path id="XMLID_391_" class="st0" d="M215.3,250.1c2,0.1,3.6,1,5.3,1.6c8.1,0.8,16.1-1.4,24.1,0.3c3.3,1.6,1.4,5.2,1.8,7.9
		c0,3.7-0.3,7.7-1.4,11.1c-2.2,6.1-2.9,12.4-5,18.3c-0.9,1-3.2,1.3-2.4,3c1.2,0.7,3,0.6,4.3,0.4c0.9,0.1,1.5-0.3,1.6-1
		c-0.3-2.6-1-5.5,0.8-7.5c0.4-0.4,1.3-0.7,1.9-0.3c1.2,3.6,0,7,0.3,10.8c-0.1,3.7,0.4,8.2,0.1,12c0,0.7,0.1,1.7-0.7,2
		c-2.3,0.4-4.5-0.7-6.8-0.3l-5,0.1c-3.2,0-6.5-0.3-9.7-0.1c-3,0-6.3,0.1-8.8-1.5l-0.8-1c-0.1-11.8,0.1-23.1-0.3-35.2
		c0.1-6.2,0.8-13-0.1-19C215,251.2,214.4,250.5,215.3,250.1z M236.9,264.6c-2.2,1.9-5.1,1.3-7.8,1.1c-1.6,0.3-3.6,0.4-4.9-0.7
		c-0.7-0.4-1.7-0.3-2,0.4c-0.4,1.9-1.8,3.7-1,5.6c0.4,0.6,1,0.4,1.4,0.1c0.6-1.6,2-2.7,3.6-3.2c0.7,0.1,1.6,0.9,2,1.5l-0.4,7
		c0.1,3.5-0.2,7.2,0.1,10.5c0.7,2.3-3.3,3.3-1.4,5.6c0.7,0.3,1.8,0.4,2.5,0c1.6,0,3.5,0.7,4.6-0.6c0.9-1.3-0.7-2-1.1-3
		c-0.1-4.3-0.2-9.4-0.5-13.8c0.7-2.2-0.8-4.8,0.6-6.5c2.1-1.2,2.2,2.1,4.2,1.9c1.6-0.8,0.8-3.2,1.6-4.8
		C238.5,265.2,237.6,264.6,236.9,264.6z M246.6,274c0.4-0.1,0.6,0.4,0.8,0.8l-0.5,5.9c-0.1,0.6-1,0.7-1.4,0.3
		c-1.2-2.1,0.3-4.6,0.7-6.8C246.3,274.1,246.5,274,246.6,274z"/>
	<path id="XMLID_398_" class="st0" d="M281,249.7c0.8-0.1,1.7,0,1.5,1c-1.3,9.5,0.3,18.5-0.1,28.1c0.4,7.5-0.4,14.4,0,21.9
		c-0.3,1.9,0.6,4.2-0.7,5.7c-2.8,1.7-6.3,2-9.7,1.9l-16.8-0.1c-2.2-0.3-3.5,2-5.7,1.1c-0.7-2,1-4,0-6c0.3-3.9,0.1-6.8-0.1-10.7
		c0.3-3-0.7-5.9,0.4-8.6c0.3-0.6,0.9-0.1,1.3,0.1c1.4,2,2,4.9,1.1,7.3c0.3,0.9,1.3,1,2.2,1c1.9-0.1,4.5,1,5.6-0.7
		c-0.3-2.3-3.7-2.6-3.7-5.2c-0.4-4.8-3.2-8.7-3.8-13.4c-0.8-2.9-1.7-5.7-2.7-8.5c-0.1-3.9-0.1-7.2,0-11.1c0.4-2.6,3.5-1.7,5.4-2.4
		c4.9,0,9.6,0.9,14.5,0.6c3.7,0.2,7.5-0.3,10.5-2C280.4,249.8,280.7,249.8,281,249.7z M273.4,265.8c-0.7,0-1.4,0.3-1.9,0.7
		c-2.8-0.3-6.1-0.2-7.7,2.4c-1,1.9-1.7,3.9-1,6.1c2,5,8.8,5.4,10.6,10.6c0.1,1.6-0.4,3.2-1.8,4c-1.9,0.3-3.9,0.3-5.2-1.3
		c-1.7-0.9-0.9-3.4-2.9-3.4c-2.2,1-0.5,3.9-1,5.9c0.2,0.4,0.3,1.2,1,1c2.2-1.9,4.1,0.8,6.4,0.7c2-0.3,4.1-0.7,5.5-2.4
		c1.4-1.6,1.9-4,1.7-6c-1-6.1-8.1-6.4-11-11c-0.6-1-0.4-2.1,0.1-3.2c1.3-1.4,3.2-0.4,4.8-0.3c1.3,0.7,1.8,3.4,3.6,2.3
		c0.6-1.5,0.4-3.3,0-4.8C274.6,266.2,274,265.9,273.4,265.8z M249.6,279.3c0.4,0,0.8,0.7,0.6,1.2c-0.1,0.1-0.1,0.4-0.4,0.4
		c-0.7,0.1-0.6-0.5-0.6-1c0-0.3,0.1-0.5,0.2-0.6L249.6,279.3z"/>
	<path id="XMLID_399_" class="st0" d="M227.6,152.9c1.2-0.1,1.7,1.4,2.1,2.1c0.6,1,0.9,2.4,0.7,3.4c0.4,12,0,24.3,0,36.3v15
		c0,0.6-0.2,1-0.7,1c-1.9-0.9-2.3-2.9-3-4.6c0.1-7.6,0.1-14.4,0.1-22c0.1-9.1-0.3-18.7,0.1-28c-0.1-1-0.4-2.3,0.1-3.1
		C227.3,152.9,227.4,152.9,227.6,152.9z"/>
	<path id="XMLID_400_" class="st0" d="M170.9,153.5c0.7-0.1,0.7,0.6,0.8,0.8c-0.4,0.7-0.7,1.5-0.1,2.2c0.4,4.5-0.7,9.3,0,13.7
		c-0.3,6.2,0,12.1,0,18.5c-0.3,4.8-0.2,10.6-0.2,15.4c0.4,3.2,0.4,6.8-2.4,8.5c-1.2-0.1-0.6-1.4-0.8-2c0.3-2.9-0.2-5.6,0-8.7
		c0.6-8.4-0.4-17,0.1-25.5v-18.6C168.7,156.2,169.1,154.3,170.9,153.5z"/>
	<path id="XMLID_401_" class="st0" d="M226,210.4c1.5,0.2,1.9,2.2,2.9,3.2c0.3,0.6-0.4,1.3-1,1.3h-8.8c-3.5,0.1-6.2,0.3-9.8,0.3
		c-2.4-0.4-5.3,1.5-6.7-1.1c-0.4-0.8,0.6-1.4,1.1-1.7c2-0.8,3.9,0.6,6,0c5.1-0.3,11,0.3,15.5-1.8C225.6,210.4,225.8,210.4,226,210.4
		z"/>
	<path id="XMLID_402_" class="st0" d="M173.3,210.8c1.2-0.1,1.9,0.6,2.7,1c5.7,1,12.2,0,17.8,0.6c0.9,0.3,2,0.4,2.3,1.4
		c0,0.6,0,1.5-0.8,1.6c-7.1-1.3-14.4,0.3-21.4-0.6c-0.9-0.1-2.8,0.4-2.9-0.9C171.1,212.6,172,211.4,173.3,210.8z"/>
	<path id="XMLID_403_" class="st0" d="M329.4,153.2c1.1,0.2,1.3,1.6,1.9,2.5l0.6,1.7c0.3,9.1,0.1,18.4-0.1,27.9
		c-0.3,4.6,0.3,8.6,0.1,13.4c-0.7,3.9,0.4,7.9-0.3,11.7c-0.4,0.4-1.1,0.4-1.6-0.1c-1.4-1.4-2.5-3.3-2-5.5c0-11.8,0-23.1,0.1-34.6
		c0.6-5.3-0.3-10.1,0-15.5c0.1-0.6,0-1.3,0.7-1.5C329.1,153.2,329.3,153.2,329.4,153.2z"/>
	<path id="XMLID_404_" class="st0" d="M271.1,153.9c0.1,0,0.3,0.1,0.5,0.4c0.6,1.7,0.6,3.7,0.6,5.6c-0.4,4.7,0.6,9.7-0.1,14.6
		c0.1,11.1,0,22.5-0.1,34c-0.7,1-0.7,2.6-2.2,2.9c-0.8,0.1-0.7-0.8-0.8-1.3c0.6-3.3-0.4-6.3,0.1-9.5c-0.5-12.5,0-23.8-0.1-35.6
		c0.3-3.6-0.6-6.6,1-9.8C270.4,154.8,270.7,153.9,271.1,153.9z"/>
	<path id="XMLID_405_" class="st0" d="M273.7,210.6c3.6,0.5,7.4,1.5,11.1,1.2c3.6,0.1,8.2-0.6,11.3,0.6c0.7,0.7,1,1.6,0.3,2.4
		c-2.7,0.7-5.3-0.9-8.2-0.6l-15.4,0.1c-0.6-0.1-1.3-0.5-1.3-1.2C271.6,212,272.8,211.3,273.7,210.6z"/>
	<path id="XMLID_406_" class="st0" d="M326.3,210.7c1.7,0,2.8,1.4,3.8,2.7c0.3,0.6,0,1.6-0.8,1.3h-25.4c-0.7-0.3-1-1.3-0.8-2
		c3.3-1.6,7.5-0.7,11.1-0.7C318.2,212.2,322.5,212,326.3,210.7z"/>
	<path id="XMLID_407_" class="st0" d="M285.7,251.8c1.2,0.6,2,2,2.6,3.2c0.7,12.8,0.4,26.2,0.4,38.8l-0.3,16.5
		c-0.3,0.6-0.8,0.2-1.1-0.1c-1.6-1.9-3.2-4.3-2.3-7c-0.2-8.1-0.3-17.9-0.1-25.8l0.1-5v-8.4c-0.3-3.6-0.2-7.6,0-11.2L285.7,251.8z"/>
	<path id="XMLID_408_" class="st0" d="M210.9,252.9c2.4,0.4,0.4,3,1,4.6c0.1,15.4,0.1,30.7,0.1,47.2c0.4,2.3-0.7,4.6-2.4,6.1
		c-0.4,0-0.8-0.3-0.8-0.8l0.1-5.7c0-16.3-0.3-32.3,0-48C209.2,255.1,210.2,253.9,210.9,252.9z"/>
	<path id="XMLID_409_" class="st0" d="M214.1,309c1.6,0.3,2.8,1.3,4.3,1.7c7.2,0.6,14.8,0.3,22.2,0.3c1.4,0,3.3-0.2,4.5,0.8
		c0.3,0.4,0,1-0.3,1.5l-1,0.6l-23.4-0.1c-2.7,0.1-5.6-0.9-8.2-0.3c-0.4,0-1.3,0.1-1.3-0.6C211.5,311.1,212.5,309.8,214.1,309z"/>
	<path id="XMLID_410_" class="st0" d="M283.1,309c1.4,0,2.3,2.4,3.3,3.5c0.3,1.2-1.2,1.1-1.9,1.3c-5.3-0.3-10.2,0-15.5,0
		c-5.2,0.3-10.7-0.1-16,0c-0.7-0.5-1.4-1.3-0.8-2c2.4-1.3,5.6-0.8,8.5-0.8c7.1-0.3,14.2,0.8,20.9-1.1
		C282.1,309.2,282.6,309,283.1,309z"/>
	<path id="XMLID_411_" class="st2" d="M200.1,215.6c1.4,0.4,2.7,1.7,3.2,3.2c-0.1,1.4-0.1,3.4-1.7,4c-0.9,0.4-2,0.3-2.7-0.3
		c-1.6-0.7-1-2.3-1.2-3.7C197.6,217.2,198.7,216.2,200.1,215.6z"/>
	<path id="XMLID_412_" class="st2" d="M299.8,215c1.1,0,2.2,0.8,2.7,1.9c1,1.2,0.9,3,0.1,4.3c-0.7,0.7-1.9,0.5-2.7,0.6
		c-1-0.1-1.7-1-2.2-1.9c-0.4-1.3-0.3-2.7,0.5-3.7C298.6,215.4,299.2,215.1,299.8,215z"/>
	<path id="XMLID_430_" class="st2" d="M248.5,313.7c0.9,0,1.7,0.9,2,1.8c0.8,1.4,0,3,0.1,4.7c-0.4,0.9-1.5,1-2.4,1c-1,0-2-1-2.3-2
		c-1-1.2-0.3-2.7,0-4c0.7-0.6,1.2-1.3,2.2-1.5C248.2,313.7,248.4,313.7,248.5,313.7z"/>
	<path id="XMLID_505_" d="M164.3,303.8c-4.1,0-7.5,3.4-7.5,7.5c0,0.7,0.1,1.4,0.3,2.1l0,0c-0.6,0.5-1.2,1.4-1.5,3.8
		c0,0.2,0,0.5,0,0.7c0,0.5-0.1,0.9-0.1,1.4c0,0.8,0,1.8,0.1,2.9c0.9,0,1.7,0,2.5,0.1c-0.3-3.9,0-5.6,0.3-6.4
		c0.5,0.6,1.1,1.1,1.7,1.6c-0.7,1.4-0.7,3.5-0.5,5c0.9,0.2,1.8,0.4,2.6,0.7c-0.1-0.8-0.2-1.6-0.2-2.3c0-1.1,0.1-2,0.3-2.4
		c0.6,0.2,1.2,0.3,1.9,0.3c4.1,0,7.5-3.4,7.5-7.5C171.8,307.2,168.4,303.8,164.3,303.8z M164.3,316.3c-2.7,0-5-2.2-5-5
		c0-2.7,2.2-5,5-5c2.7,0,5,2.2,5,5C169.3,314,167,316.3,164.3,316.3z M225.2,359.3c-2.2-0.1-3.6,1-4.4,2.5
		c-2.2-2.4-10.4-11.4-13.8-14.4c0,0-2.4-2.8-2.4-5c0,0-3.6-6.3-5.7-0.8c-2.4-4-10.8-17.6-12.9-11.7c0,0-1.1,4.3-0.6,9
		c0,0,0.1,1.8,0,3.8c-1.5-1.2-3.3-2.7-3.3-2.7c-8-4.6-5.8,0.2-5.8,0.2c0.8,2.5,0.4,5.3,0.2,6.7c1.1,0.5,1.6,0.9,1.6,0.9
		c0.5,0.3,1,0.7,1.4,1c0.3-2-0.7-4.8-0.7-4.8c-1.7-2.7,0-2.7,0-2.7c2.7-0.1,5.1,2.6,6.5,4.5c-0.1,1.2-0.3,2.2-0.6,2.8c0,0-0.8,1-1,3
		c1.2,0.8,2.4,1.5,3.6,2.2c-0.3-2.7-0.8-8.5,1.5-12.5c0,0,0.3-3.2-1.1-6c0,0-1.6-5.2,3.3-0.2c0,0,5.5,6.2,7.4,10.9
		c-0.1,1.9-0.2,4.4-0.2,7c-2.7-0.7-3.9-5.3-3.9-5.3c-1.1-4.9-2.4-4.7-2.4-4.7c-0.6,2.1,0.5,4.6,0.5,4.6c1.1,1.5,2,7.7,2.2,10.3
		c0.7,0.4,1.4,0.7,2.1,1.1c-0.5-1.6-0.3-3.3-0.3-3.3c0.3,0.6,1.2,0.6,1.9,0.6c0.1,1.3,0.3,2.6,0.6,3.8c0.9,0.4,1.9,0.9,2.8,1.3
		c-1.3-3.5-3.7-11.7-0.6-17.2c0,0,1.4-3,2.7,0.8c0,0,7.4,10.4,12.1,14.4c0,0,3,3.6,2.2,8.2c1,0.3,1.9,0.5,2.9,0.8
		c0.2-4.4,1.9-5.7,1.9-5.7c4.3-4.3,4.3,5.8,4.3,7.1c1.2,0.2,2.4,0.5,3.6,0.7C230.2,361.9,225.2,359.3,225.2,359.3z M338.1,116.6h2.7
		c-5.3-6.1-6.9-4.5-6.9-4.5C335.5,113,337.2,115.3,338.1,116.6z M316.7,340c0,0-1.8,1.5-3.3,2.7c0-2,0-3.8,0-3.8
		c0.5-4.7-0.6-9-0.6-9c-2.1-5.9-10.4,7.7-12.7,11.7c-2.1-5.5-5.6,0.8-5.6,0.8c0,2.2-2.3,5-2.3,5c-3.3,3-11.3,11.9-13.5,14.4
		c-0.8-1.5-2.1-2.6-4.3-2.5c0,0-5,2.6-5.5,11.4c1.2-0.2,2.3-0.4,3.4-0.6l0.1-0.2c0,0-0.3-11.8,4.2-7.3c0,0,1.8,1.4,1.9,6.1
		c1-0.2,1.9-0.5,2.9-0.8c-1.1-4.8,2.1-8.7,2.1-8.7c4.6-3.9,11.9-14.4,11.9-14.4c1.2-3.8,2.6-0.8,2.6-0.8c3.5,6.3-0.1,16-1,18.4
		c1-0.4,1.9-0.8,2.9-1.3c0.5-1.5,0.7-3.3,0.9-5.1c0.7,0.1,1.6,0,1.9-0.6c0,0,0.4,2.9-1,4.8c0.2-0.1,0.3-0.1,0.5-0.2l2.2-1.3
		c0,0,0.9-9.5,2.3-11.4c0,0,1.1-2.5,0.5-4.6c0,0-1.2-0.2-2.3,4.7c0,0-1.2,4.6-3.9,5.3c0.1-2.6,0-5.1-0.2-7
		c1.9-4.7,7.3-10.9,7.3-10.9c4.8-5,3.3,0.2,3.3,0.2c-1.4,2.8-1.1,6-1.1,6c2.9,5.2,1.2,13.9,1.2,13.9l2.1-1.2c0.6-0.3,1.1-0.7,1.6-1
		c0.3-3.1-0.9-4.4-0.9-4.4c-0.3-0.5-0.5-1.6-0.6-2.8c1.3-1.9,3.7-4.6,6.4-4.5c0,0,1.7,0,0,2.7c0,0-1.5,4.2-0.3,6l0.2-0.1l2.6-2.1
		c0,0-1.1-4.1,0-7.6C322.5,340.1,324.6,335.4,316.7,340z M144.3,291.2c0,0-3.5,0.2-7.7,15.8c0,0-0.9,5.7,0.3,5.8
		c0,0,1.7-0.3,1.4-4.9c0,0,1.4-2.7,1.4,2.8c0,0,2.1,1.1,2.1-2.1c0,0-1.3-11.5,2.5-15.6C144.3,293.1,146.5,289.1,144.3,291.2z
		 M203.6,351.8c2.7,2.3,2.6,9,2.4,11.5c1,0.4,2.1,0.8,3.1,1.2c0-1-0.3-2-0.3-2c0.8,0.7,1.6,1.8,2.1,2.6c0.7,0.3,1.4,0.5,2.2,0.8
		c-0.9-5.6-5.4-11.6-5.4-11.6C203.3,348.6,203.6,351.8,203.6,351.8z M291.7,354.1c0,0-4.8,6.5-5.4,12.3c0.6-0.2,1.2-0.4,1.7-0.6
		c0.3-0.5,1.4-2.5,2.6-3.5c0,0-0.5,1.6-0.3,2.7c1-0.4,2.1-0.8,3-1.1c-0.1-1.2-0.7-9.7,2.3-12.3C295.7,351.6,296,348.5,291.7,354.1z
		 M343.3,317.6c0-0.1,0-0.2,0-0.3c0-0.1,0-0.2,0-0.3c-0.2-1.5-0.6-2.6-1.3-3.3c0.3-0.8,0.4-1.6,0.4-2.5c0-4.1-3.4-7.5-7.5-7.5
		c-4.1,0-7.5,3.4-7.5,7.5c0,4.1,3.4,7.5,7.5,7.5c0.3,0,0.5,0,0.8,0l0,0.2c0.1,0,0.2,0.1,0.3,0.2c0.5,0.8,0.2,3.2-0.2,4.5l0.2,0.1
		c0.8-0.3,1.6-0.5,2.6-0.7c0.3-1.4,0.5-3.6-0.3-5c0.9-0.4,1.6-1,2.3-1.7c0.3,0.9,0.6,2.7,0.2,6.4c0.8-0.1,1.7-0.1,2.5-0.2
		c0.1-1.3,0.2-2.4,0.1-3.5C343.4,318.6,343.3,318.1,343.3,317.6z M335,316.3c-2.7,0-5-2.2-5-5c0-2.7,2.2-5,5-5c2.7,0,5,2.2,5,5
		C340,314,337.8,316.3,335,316.3z M116.6,329c-10.9-11.7-13.2-8-13.2-8c4.3,2,12.1,11.4,12.1,11.4C117.1,331.7,116.6,329,116.6,329z
		 M313.8,116.6h3.2c-2.4-5.9-10.9-5.3-10.9-5.3c-4.7,0.5-5.4-3.8-5.4-3.8c-5-4.9-12-0.8-12-0.8c-2.1,3.3-10.2,8.2-13,9.9h3.5
		c4.5-2.9,10.2-7.7,10.2-7.7c4.6-3.4,6.6-1.4,7.4-0.1l-0.3,0c-3.4,0-6.2,2.8-6.2,6.1c0,0.6,0.1,1.1,0.2,1.7h2.7
		c-0.3-0.5-0.4-1.1-0.4-1.7c0-2,1.6-3.6,3.6-3.6l1,0.1l0-0.1c0.6,1.5,1.8,2.4,2.7,3l-0.2,0l0,0.6c0,0.6-0.1,1.2-0.4,1.7h2.7
		c0.2-0.5,0.2-1.1,0.2-1.7l-0.1-0.7C308,111.5,312.2,114.9,313.8,116.6L313.8,116.6z M417.5,240.8c0,0,1.9-5.5,7.1-8.2
		c0,0,2.7-3.8-5.5-5.5c0,0-2.5-0.7-5.2,0.2c0.8-4.4,0.6-7.5,0.6-7.5c-1.3-4.3-0.3-13.7-0.3-13.7c1.9-5.5-0.8-5.2-0.8-5.2
		c-0.7,0.2-1.5,0.6-2.1,0.9c0.2-2.9-1.3-5.7-1.3-5.7c-2.8-3.8-0.8-12-0.8-12c5.2-6.5-1.4-6.2-1.4-6.2c-8.6,3.9-9.9,14.2-10.1,17.7
		c-1.2,0.2-2.2,1.5-3.1,3c-1.9-1.9-5.9-7.2-3.1-15.2c1.6,0.7,3.5,0.8,5.2,0.3c3.8-0.5,6.7-3.7,6.7-7.7c0-4.3-3.5-7.7-7.7-7.7
		c-0.7,0-1.4,0.1-2.1,0.3c-1.7,0.2-3.3,1-4.5,2.2c-1.4,1.4-2.2,3.2-2.3,5.1l0.1,0c-0.7,0.8-1.4,1.7-1.7,2.5c0,0-5.1-5.3-6.7-11.5
		c1.6-0.4,6.1-2.2,7-8.4c0,0,0.2-5.5,3.9-8c0,0,5.8-3.2-3.5-4.6c0,0-4.6-0.1-7.3,2c-0.4-4.2-1.5-8.7-4.4-11.6c0,0-3.2-5.5-1.4-9.8
		c0,0,0.8-3.2-3.9-0.9c0,0-1.6,1.4-3.3,3.4c-1.4-2.3-2.8-3.5-4-4.3v3.1c1.1,1,2,2.2,2.5,3.2c-1.1,1.7-2.1,3.6-2.4,5.4l-0.1-0.1v3.9
		c8.4,5.7,9,15.6,9,19.3c-0.2,0.1-0.5,0.2-0.7,0.3c0,0-4.1-5.8-8.2-9v5.1c2.1,2.8,4.5,6.7,4.2,9.3c0,0-2.2-0.2-4.2-1.1v2.6
		c0.6,0.2,1.2,0.4,1.8,0.6c0,0-1.6,1.1-1.8,2.3v0.4c0,0.2,0.1,0.3,0.2,0.5c0,0,5.8-3.3,7.6,0.3c0,0,0.4,0.5,1.1,1.4
		c-3.8-0.7-6.8,0.3-8.8,1.6v2.9c4.2-3.3,8-3.1,10.3-2.6c1.9,2.6,4.3,6.4,5.2,9.4c0,0-2.4-0.5-4.3-0.4c-1.3-1.8-3.3-3-5.7-3
		c-2.3,0-4.3,1.1-5.6,2.8v8.6c1.3,1.6,3.2,2.7,5.5,2.7c0.7,0,1.3-0.1,1.9-0.3c3.4,2.6,1.8,8.9,1.8,8.9c-0.5,4.1-0.4,7.7-0.2,9.6
		c-1-0.5-2-1.1-3.1-1.6c0,0-8.2-3.6-3.2,6.1c0,0,0.9,1.8,2,4.3c-3.1-0.5-5.2-0.5-6.7-0.3c-0.1,0.4-0.1,0.7-0.2,1.1
		c-0.1,0.7-0.2,1.3-0.3,2c-0.1,0.4-0.1,0.8-0.2,1.2c-0.1,0.7-0.2,1.4-0.3,2.1c0.2,0.3,0.4,0.5,0.4,0.5c2.4,1.7,5.2,8,5.2,8
		c4,6,9.5,8.5,11.7,9.3c0.1,0.2,0.3,0.4,0.4,0.6c-0.9-0.4-1.9-0.6-3-0.6c-0.8,0-1.6,0.1-2.4,0.4c-3.7,0.7-6.4,3.9-6.4,7.7
		c0,4.3,3.5,7.9,7.9,7.9c0.8,0,1.6-0.1,2.4-0.4c1.1-0.2,2.2-0.7,3.1-1.3c3.7,1.2,6.3,3.2,7.7,5.9c1.6,3.2,1.4,6.8,0.9,9.4
		c-2.6-1.6-2.7,2.9-2.7,2.9c0.3,1.6,0.2,3.3-0.1,4.8c-3.1-2.2-2-10.7-2-10.7c0.5-4.4-1.1-3.2-1.1-3.2c-3.4-0.4-7.2,6.4-8.8,9.4
		c-8.3-15.1-10.3-8-10.3-8c2,9.2-1.7,12.6-3.3,13.5c-3.5-3.2-6.5-4.2-6.5-4.2c-2.3-2-1.5,25.4-1.3,30.8c0.7-0.1,1.4-0.2,2.1-0.2
		c-1.1-6.7,0.1-28.3,0.1-28.3c10.4,4.4,14.7,27.3,14.7,27.3c-0.3,9.8,3.2,7.1,3.2,7.1c-0.5-9.3,5.5-16.1,5.5-16.1
		c8.2-6.8,9.1-17.3,9.1-17.3c0.8-7.6,3.2-1.3,3.2-1.3c6.3,16.3,1.7,28.7-0.5,33.3c-4.7,2.5-6.4,5.4-6.4,5.4c5.2-8.7,5.2-23,5.2-23
		c-0.9-4.7-2.8-2.7-2.8-2.7c1.4,7.4-3.3,13.2-3.3,13.2c-5.4,6.3-5.7,15-5.7,15c1.3,1.1,1.3-0.5,1.3-0.5c3.2-9.9,6-11.7,6-11.7
		c1.3,3.8-3.5,11.2-3.5,11.2c-1.7,4.4,1.6,2.2,1.6,2.2c18-16.1,31.9-10.1,31.9-10.1c-6.1,3.2-12.8,11.2-12.8,11.2
		c-2.2,7.7-9.9,10.9-13.1,11.9l0.4,0.4c0.5,0.5,0.9,1.1,1.3,1.6c5.1-1.2,11.5-8.9,11.5-8.9c3.2-10.1,13.4-13.6,13.4-13.6
		c7.4-0.8,0.5-5,0.5-5c-1-0.1-2.1-0.2-3-0.3c7.9-13.4,7.5-18.8,7.5-18.8c0.8-8.8-3.5-4.4-3.5-4.4c-3.9,4.2-7.1,4.1-8.3,3.8
		c0.2-0.7,0.4-1.3,0.6-1.9c0,0,8.2-12.6,0.9-10.9c0,0-5,0.6-10.2,4.2c1.5-7.4,6.4-10.6,8.9-11.7c1.4,1.7,3.6,2.9,6.1,2.9
		c0.7,0,1.5-0.1,2.2-0.3c3.9-0.5,6.9-3.8,6.9-7.8c0-4.3-3.5-7.9-7.9-7.9c-0.7,0-1.5,0.1-2.2,0.3c-2.8,0.4-5.2,2.2-6.3,4.8
		c-2.8,0.6-4.5,2-4.5,2c1.1-3.7,1.5-7.9,1.6-11.7C404.6,253.6,413.1,252.7,417.5,240.8L417.5,240.8z M370.9,302.7
		c-1.3-19-5-18.4-5-18.4c2.8,3.8,1.2,12.9,1.2,12.9c-1.5-4.4-3.6-7.7-5.6-10.3c1.5-3.2,2.3-9.1,2.3-9.1c-0.8-6.9,0.5-5.2,0.5-5.2
		c8.9,4.2,10.4,20,10.7,25.3C372.5,300.8,370.9,302.7,370.9,302.7z M379.8,292.1c-1.1,1.3-2.2,2.6-3.2,3.8
		c0.1-6.2-1.2-10.7-2.3-13.2c0.3-5.3,3.1-8.6,3.1-8.6c2.7-4.6,2.7-1.6,2.7-1.6c-0.2,3.7,1.5,11.3,2.3,14.7
		C381.2,290.1,379.8,292.1,379.8,292.1z M411.9,260.9c0.2,0,0.3,0,0.5,0c3,0,5.4,2.4,5.4,5.4c0,2.4-1.6,4.4-3.7,5.1
		c-0.2,0-0.3,0-0.5,0c-3,0-5.4-2.4-5.4-5.4C408.2,263.7,409.7,261.6,411.9,260.9z M409.8,206.7c3.6-3.6,3-0.9,3-0.9
		c-2.8,3.2,0.2,13.1,0.2,13.1c1.1,13.8-7.3,22.6-10.6,25.6c0.6-4.1,0.8-7.9,0.7-11.4c0.9-1.7,2.5-5.1,2.2-6.9c0,0,0.2-6,1.7-8.2
		c0,0-3.2,4.2-4.4,9.8c-0.4-3.1-1.1-5.9-1.9-8.4C402.6,213.3,409.8,206.7,409.8,206.7z M404.6,183.2c5.7-3.9,3.2,0.2,3.2,0.2
		c-3.6,4.4-0.3,11.8-0.3,11.8c1,2.1,0.9,6,0.7,8.7c-0.9,0.7-1.7,1.5-2.5,2.4c-1.8-4.1-4.2-8.1-4.2-8.1c-0.5-0.7-0.9-1.2-1.3-1.6
		C398.2,187.7,404.6,183.2,404.6,183.2z M398.6,199.2c2.1,0.1,4.4,6.4,5.3,9.1c-2.3,2.8-3.9,5.6-4.8,7.1c-1.7-3.9-3.7-6.7-5.1-8.4
		C395,198.8,398.6,199.2,398.6,199.2z M394.1,171.3c0.2,0,0.3,0,0.5,0c1.4,0,2.7,0.5,3.7,1.5c2,2,2,5.3,0,7.4
		c-0.6,0.6-1.3,1-2.1,1.3c-0.1,0-0.3,0-0.4,0c-1,0-2-0.3-2.9-0.9c0.5-1.2,1.2-4.1-2.1-5.6C391.1,173.2,392.4,171.8,394.1,171.3z
		 M378.4,157.5c0.2-1.5,0.4-3.9,0.4-6.7c1.1-1,4-3,8.1-2.3c0,0,3,0.8-1.6,3.5c0,0-1.7,3.3-2.7,8.2c0,0-0.8,4.6-4.5,5
		c-0.4-3.4,0.4-6.8,3.8-9.8C382,155.5,380.7,156.1,378.4,157.5z M363.5,137.7c0.3-1.5,1.2-4.5,4.3-6.7c0,0,1.4-1.4,3,2.5
		c0,0,2.4,6.8,4.1,9c0,0,3.7,7.6,1.5,16.3c-0.5,0.3-1,0.7-1.5,1c0,0-0.7-0.6-1.9-0.6C373.1,147.3,367.7,140.9,363.5,137.7z
		 M379.5,187.4c0,0,2.4,0.6-1.6-6.5c0,0-6.9-12.1-9.1-14.8c0,0-0.5-1.4,2.5-1.1c0,0,1.7,0.6,1.3-2.5c0,0,1.6-0.9,2,0.6
		c0,0,4.4,10.4,9.8,18.5c0,0,2.2,1.6,3-2c0,0,0.9-3.5,3.5-0.6c0,0,0.3,0.6,0.2,1.4l-0.2-0.1l-1.8,1.8c0.1,0.1,0.3,0.2,0.4,0.4
		l-0.1,0c0,0-4.8,7.9,4,18.7c-0.6,1.5-1.1,3-1.4,4c-1.6-1.5-2.8-2.5-3.7-3c-6.1-11.7-11.8-14.1-14.2-14.5l0-0.1
		c0-0.8-0.2-1.6-0.4-2.4C375.3,184.7,378.1,184.6,379.5,187.4z M376.2,205.5c0,0,4.7,7.3,5.9,11.7c-0.5,1-0.9,1.9-1.1,2.5
		c-1.9-1.7-4.1-3.3-6.6-4.9c-1.9-2.9-2.1-6.8-2.1-6.8c0.6-3.2,0.6-9.9,0.6-9.9c5,0.8,10.6,7.2,13,10.2c-0.3,2.7-1.3,5.2-1.3,5.2
		l-0.2,0.2c-1.8-2.7-6.7-10-9.4-11.3C374.9,202.5,374.7,202.8,376.2,205.5z M367.2,191.8c-2.4,0-4.4-2-4.4-4.4
		c0-0.6,0.1-1.1,0.3-1.6c0.7-1.5,2.2-2.5,4-2.5c2.4,0,4.4,2,4.4,4.4c0,0.6-0.1,1.1-0.3,1.6C370.5,190.7,368.9,191.8,367.2,191.8z
		 M370.6,193.5c1.3-0.8,2.3-1.9,2.9-3.3l0-0.1c5.3-0.5,9.9,7.6,11.8,11.5c-0.4,0.7-0.2,1.9-0.2,1.9c0.3,0.5,0.4,1,0.6,1.5
		C381.6,199.3,374.1,195.2,370.6,193.5z M368.3,236.7c-0.8-1.6-5.7-7.3-5.7-7.3c-5-6.1-1.8-6-1.8-6c2-0.8,4.9-0.2,6.7,0.4
		c1.5,3.4,3,7.4,3.4,9.9c0,0,0.9,3.6,2.8,7.6C371.1,239.8,368.3,236.7,368.3,236.7z M374.3,258.4c-0.3,0-0.5,0.1-0.8,0.1
		c-3,0-5.4-2.4-5.4-5.4c0-2.3,1.5-4.3,3.6-5.1c0.3,0,0.5-0.1,0.8-0.1c3,0,5.4,2.4,5.4,5.4C377.9,255.7,376.4,257.7,374.3,258.4z
		 M370.9,225.1c0,0-4-9.9-5.9-11.1c0,0-0.4-2.9,4.2,0.4c0,0,25.7,14.3,21.6,29.9c-13.2-18.3-17.6-21.4-17.6-21.4
		c6.8,8.5,10.7,18.7,12.7,25.3C382.5,247.1,373.4,242.7,370.9,225.1z M387.7,255.2c-2.8-2.5-5.2-3.5-6.6-3.8
		c-0.1-0.6-0.3-1.1-0.6-1.7c1.8,1.1,3.8,1.5,6.1,1.1C387.4,253.6,387.7,255.2,387.7,255.2z M414,291.4c2.7-2.2,2.5,0,2.5,0
		c-0.9,10.1-8.3,17.5-10.3,19.4c-1.6,0-3.2,0-4.6,0.1c1.3-1.5,6-6.7,5.7-9.5c0,0-0.7-0.6-3.2,2.2c0,0,0.2-4.6,1.2-9.5
		C409.1,295.3,414,291.4,414,291.4z M406.7,281.2c0,0,2,0.3-0.2,4.2c0,0-2.5,4.3-4.6,17.7c0,0-0.6,5.1-3.8,8.3c-3,0.5-5.4,1.2-7.5,2
		c2.1-4.7,3.2-9.2,3.6-13.2c1-2.8,2.6-6.2,4.3-7c0,0-0.1-2.3-4.2,2.6c-0.1-1.8-0.2-3.6-0.5-5.2c0.6-1,1.6-2.5,3.2-4l0.1,0l0-0.1
		C399.2,284.2,402.4,281.9,406.7,281.2L406.7,281.2z M404.5,266c0,0.1,0,0.2,0,0.3c0,1,0.2,2,0.6,2.9c-3.4,1.6-9.7,6-10.5,16.2
		c-0.5,0.5-1.1,1-1.6,1.6c-1.3-4.8-3.2-8.3-4.2-9.9c0.8-2.8,1.7-8.1-0.7-12.7c-1.5-3.1-4.2-5.4-8-6.8c0.8-1.2,1.3-2.6,1.4-4.1
		c3.5,1.3,7.6,6.4,7.6,6.4c0.6,2.5,2.1,2.7,2.1,2.7c0-8-2.9-17.9-2.9-17.9c1.9,3.8,3.4,7.8,3.4,7.8c2.5-0.6,2.1-15.8,2.1-15.8
		c0.6,13,2.9,17.7,2.9,17.7c1.5-0.6,3.6-4.2,3.6-4.2c-4.2,18.9-2.5,20-2.5,20C399.9,267.9,402.6,266.7,404.5,266z M399.4,246.9
		c-0.8,0.6-1.6,0.3-1.6,0.3c-4.2-25.7-7.2-26.1-7.2-26.1c2.2,6.1,2.3,11.9,1.9,16.2c-1.1-4.4-3.7-9.7-9-15.1
		c-0.2-1.7,0.8-3.1,0.8-3.1c3.3-2.7,2.8-11,2.8-11c-0.6-5.2,1.6-3,1.6-3C405.3,220.9,400.6,242.5,399.4,246.9z M413.2,230.5
		c1.8-0.3,5.6-0.7,7.6-0.1c0,0,3.2,1.1-1.7,3.8c0,0-3.5,5.2-5.8,10.3c0,0-4.8,8-11.1,7.9c0-1.3-0.1-2.6-0.1-3.8
		C408.6,243.2,411.7,236.2,413.2,230.5z M133.5,360c-0.9-0.2-2-0.2-3.1-0.1c-2.6,1.8-5.5,1.9-7.9,1.5c-1.6,0.4-2.7,0.8-2.7,0.8
		c-7.9,5-0.9,6.9-0.9,6.9c2.4-0.2,7.4,2.5,7.4,2.5c4.3,4.4,5.7,2.2,5.7,2.2c-0.2-3.6-7.7-6-7.7-6c-5.2-0.9-4.4-1.7-4.4-1.7
		c5.7-4.4,13.9-2.8,13.9-2.8C137.9,361.4,133.5,360,133.5,360z M396.7,320.8c0,0-2.4-3.6-13.2,8c0,0-0.5,2.7,1.1,3.3
		C384.5,332.1,392.4,322.8,396.7,320.8z M355.7,291c-2.2-2,0,1.9,0,1.9c3.8,4.1,2.5,15.6,2.5,15.6c0,3.2,2.1,2.1,2.1,2.1
		c0-5.5,1.4-2.8,1.4-2.8c-0.3,4.6,1.4,4.9,1.4,4.9c1.3-0.2,0.3-5.8,0.3-5.8C359.1,291.1,355.7,291,355.7,291z M370.4,367.1
		c2.6-0.3,0.2-1.7,0.2-1.7c-4.6-0.5-3.5,1.7-3.5,1.7C368.5,366.4,370.4,367.1,370.4,367.1z M380.1,362.2c0,0-1-0.3-2.5-0.7
		c-3.4,0.8-6.5-0.2-8.8-1.6c-0.9,0-1.8,0-2.6,0.1c0,0-4.5,1.4-0.2,3.3c0,0,8.3-1.6,14,2.8c0,0,0.8,0.8-4.5,1.7c0,0-7.7,2.4-7.8,6
		c0,0,1.4,2.2,5.7-2.2c0,0,5.1-2.7,7.5-2.5C381.1,369.1,388.1,367.2,380.1,362.2z M158.1,116.6c0-2.4-0.3-8.5-3.3-10.3
		c0,0-1.1-0.3-2.2,2.4c0,0-4,5.8-7.4,8h4.3c1.5-1.3,4.1-3.7,4.6-5.3c0,0,2.5,1.5,1.1,5.3H158.1z M129.2,365.3c0,0-2.4,1.4,0.2,1.7
		c0,0,1.8-0.6,3.3,0C132.7,367.1,133.8,364.8,129.2,365.3z M234.8,101.6c1.8-1.1,4-3.4,4-3.4c4.1-4.4,0.3-4.9,0.3-4.9
		c-2.2,0.9-5.8-0.5-5.8-0.5c-9.3-5.8-18.1-3.6-18.1-3.6v-1.1c-0.5-7.9-4.1-3.5-4.1-3.5c-0.5,2.5-3.6,3-3.6,3
		c-9.5,2.8-11.5,8.4-11.5,8.4c-1.6,4.1-5.2,5.5-5.2,5.5c-6.1,1.2-9.9,3.1-11.7,4.2c0.4-0.8,0.6-1.8,0.6-2.8c0-3.6-2.9-6.5-6.5-6.5
		c-3.6,0-6.5,2.9-6.5,6.5c0,2.5,1.4,4.7,3.5,5.8c-1.2,1.8-4.4,5.9-8.5,7.9h4.1c2.4-1.2,6.4-3.8,6.8-7.2c0.2,0,0.3,0,0.5,0
		c1.6,0,3-0.6,4.1-1.5c-0.3,2,2.2,0.4,2.2,0.4c2.7-1.6,6.3-3.5,6.3-3.5c8-1.3,9.8-3.8,9.8-3.8c2.7-8,9.1-10.1,9.1-10.1
		c2.5,0.2,4.4-1.1,4.4-1.1c3-3.3,3.6-1.6,3.6-1.6c1.4,1.6-1.4,3.2-1.4,3.2c-2.8,1.6-6.8,4.6-6.8,4.6c-3.5,3.6-2.2,3.5-2.2,3.5
		c14.5-12.3,27-6.3,27-6.3c1.9,1.4,4.3,2.8,4.3,2.8c3.3,0,2.7,1.3,2.7,1.3c-0.8,2.3-3.5,3.5-5.6,4.1c-0.4,0-0.9,0-1.4,0.1l0-0.1
		c0,0-0.6-4.4-11.7-4.9c0,0-8.4,0.9-14,5.1c-2.1,0.1-4.4,0.3-5.6,1.2c0,0,21.1,0.6,12.5,2.5c0,0-4.7-0.2-8.7,0.9
		c-0.3-0.2-0.4-0.2,0,0c-1.4,0.4-2.6,1-3.5,1.7c-1.5,0.1-3.5,0.4-6.1,1.1c0,0-4.4,0.8-6-0.2c0,0-3.3,2,2.5,1.9c0,0,6.2,0.8,1.6,2
		c0,0-13.1-1.9-17,3.7h4.5c2.1-1.2,6.5-2.9,12.1-1.8l-0.2,1.2l0.1,0.6h2.5l-0.1-0.6l0.2-1.1c0.9-0.2,2-0.8,2.4-2.2l0.9-0.2
		c1.9,0,3.5,1.6,3.5,3.5l-0.1,0.6h2.5l0.1-0.6c0-2.3-1.3-4.3-3.3-5.3c2.4-0.1,5.6,0.8,9.1,4.9c0,0,0.4,0.5,1,1h4.7
		c-1.6-0.9-4.3-2.6-6.8-4.7c2.5,0.8,5.6,1.3,9,0.2c2.3,0.6,6.7,1.5,11.1,1c1,0.6,2.3,1.6,2.8,3.5h3.4c-0.2-1.3-0.8-3.2-3.3-4.1
		c1-0.3,2-0.7,2.9-1.2c0,0,9.5-1.9,12.5,1.6c0,0,4.1,1.4,1.9-3.2C246.7,109.7,242.6,103.2,234.8,101.6z M173.2,106.8
		c-2.2,0-3.9-1.8-3.9-3.9c0-2.2,1.8-3.9,3.9-3.9c2.2,0,3.9,1.8,3.9,3.9C177.1,105.1,175.4,106.8,173.2,106.8z M204.9,108
		c1.2-0.6,3.1-1.2,6.3-1.4c0,0,5.8-0.3,6.9-4.3c0,0-1.4-0.8-9.1-0.5c0,0-0.1,0-0.4,0c1.2-1.2,4.5-3.7,11.9-3.9c0,0,10.3,2.8,5.4,5.2
		c0,0-3.8,1.9-7.7,5C218.1,108.1,209.9,110.2,204.9,108z M226.8,111.1c0,0-5.1,1-8-0.6c0.7-0.4,1.3-1,2-1.6c0,0,3.4-3.9,6.8-5.4
		c3.1-0.4,11.1-0.7,14.5,5.2C242.1,108.7,235.3,107.9,226.8,111.1z M325.9,112.5c-12-4.3-13.2-11.2-13.2-11.2c0-0.6-0.1-1.1-0.3-1.6
		l0.7-1c0.6-1,0.9-2.1,0.9-3.3c0-3.5-2.8-6.3-6.3-6.3c-3.5,0-6.3,2.8-6.3,6.3c0,1.5,0.5,2.8,1.4,3.9c-4.4,0.5-10-3.4-10-3.4
		c-4.1-7.9-13.6-10.3-13.6-10.3c-5.2,0.3-11.4-4.1-11.4-4.1c-3.9-4.2-4.2-0.3-4.1,1.2c-1.4,0.6-4.4,1.4-6.9-1.2c0,0-3.6-1.6-2.4,3.9
		c0,0,0.4,2.7,1.8,5.1c-5.6,0.1-10.9-1.2-10.9-1.2c-6-0.5,2.2,6.5,2.2,6.5c0.7,0.8,1.5,1.5,2.2,2.2c-3.3,0.6-9.8,2-4.6,3.7
		c0,0,7.9,2.4,10.7,7.9c0,0,5.5,4.7,10.1,3.3c0,0-1.6,0.7-1.5,3.6h2.5c0.6-1.3,1.8-3.6,3.5-5c0,0,1.6-0.9-3.6-0.6
		c0,0-8.5,0.2-14.7-7.4c0,0-2.4-1.9-4.9-2.2c0,0-1.4-1.7,4.5-1.4c9.6,7.4,19.6,7.5,24.8,6.9c-2.1,1.5-5.3,4.4-3.4,7.6
		c0,0,6.6-7.6,13.2-7.7c0,0,0.8-2-4.8-1.4c4-2.3,8-1.9,8-1.9c-0.3-1.9-0.7-2.8-0.9-3.1c0-0.1,0-0.2,0-0.2
		c-4.5-8.6-16.7-10.6-19.9-11c-1.6-0.9-2.2-1.7-2.2-1.7c-3.2-4.6,0.3-4.1,0.3-4.1c2.8,2.7,8.5,3.6,8.5,3.6
		c6.9,0.8,11.8,6.3,11.8,6.3c4.3,6,9.8,7.1,9.8,7.1c5,1.9,6.2,3,6.2,3c4.1,3.9,3.6-0.6,3.6-0.6c0.3-2.8,3.9-0.9,3.9-0.9
		c0.5,5.4,9,9.8,9,9.8c4.1,2.2,6.2,4,7.1,5h2.8C328.7,114.3,325.9,112.5,325.9,112.5z M282.2,96.9c-15.3-2.8-15.2,2.7-15.2,2.7
		c6.7-2.7,13.8-0.2,16.9,1.3c-14.1,10.7-31.4-3.5-31.4-3.5c-7.6-3.9-4.7-5-4.7-5c5.4,2,11.5,0.3,11.5,0.3
		C273.1,89.3,279.7,94,282.2,96.9z M265.8,88.9c-2.1,0.1-4.3,0.9-5.2,1.3c-1.6-0.7-4.1-2.2-4.2-5.5c0,0-0.3-2.4,1.7,0.6
		c0,0,3.7,1.1,5.9,0.4C264.5,87.1,265.2,88.2,265.8,88.9z M310.9,97.5l-0.4,0.5c-1.6-0.5-3.8,0.1-5,0.5c-1-0.7-1.5-1.8-1.5-3
		c0-2.1,1.7-3.8,3.8-3.8c2.1,0,3.8,1.7,3.8,3.8C311.5,96.2,311.3,96.9,310.9,97.5z M148.1,279.7c0,0-3,1-6.5,4.2
		c-1.6-1-5.3-4.3-3.3-13.5c0,0-2-7.1-10.3,8c-1.5-3-5.3-9.8-8.8-9.4c0,0-1.6-1.3-1.1,3.2c0,0,1.1,8.5-2,10.7
		c-0.3-1.6-0.4-3.3-0.1-4.8c0,0-0.1-4.5-2.7-2.9c-0.5-2.6-0.7-6.2,0.9-9.4c1.4-2.8,4-4.7,7.7-5.9c1.3,0.9,2.9,1.5,4.6,1.5
		c4.4,0,7.9-3.5,7.9-7.9c0-4.3-3.5-7.9-7.9-7.9c-1,0-2,0.2-3,0.6c0.1-0.2,0.3-0.4,0.4-0.6c2.2-0.8,7.7-3.3,11.7-9.3
		c0,0,2.8-6.3,5.2-8l0,0c-0.2-0.9-0.3-1.9-0.5-2.8c0-0.3-0.1-0.6-0.1-0.8c-0.1-0.7-0.2-1.4-0.3-2.2c0-0.3-0.1-0.6-0.1-1
		c-1.5-0.1-3.5-0.1-6.2,0.3c1.1-2.5,2-4.3,2-4.3c5-9.7-3.2-6.1-3.2-6.1c-1.1,0.5-2.1,1.1-3.1,1.6c0.2-1.9,0.4-5.4-0.2-9.6
		c0,0-1.6-6.5,2-9c0.5,0.1,1,0.2,1.6,0.2c2,0,3.8-0.8,5-2.2v-9.5c-1.3-1.3-3.1-2.2-5-2.2c-2.3,0-4.4,1.2-5.7,3
		c-1.8-0.1-4.3,0.4-4.3,0.4c0.9-3,3.3-6.7,5.2-9.4c2.1-0.5,5.8-0.7,9.7,2.2V174c-2-1.1-4.8-2-8.3-1.3c0.6-0.8,1.1-1.4,1.1-1.4
		c1.5-3.1,6-1.1,7.2-0.5V169c-0.5-0.7-1.2-1.2-1.2-1.2c0.4-0.1,0.8-0.2,1.2-0.4v-2.6c-1.9,0.8-3.7,0.9-3.7,0.9
		c-0.2-2.4,1.8-5.9,3.7-8.6v-5.5c-4,3.2-7.7,8.5-7.7,8.5c-0.2-0.1-0.5-0.2-0.7-0.3c-0.1-3.6,0.5-13.2,8.4-19v-5.8
		c-0.5-1.3-1.2-2.7-2-3.9c0.5-0.8,1.2-1.8,2-2.7v-3.3c-1.1,0.8-2.3,2-3.5,3.9c-1.7-2.1-3.3-3.4-3.3-3.4c-4.7-2.2-3.9,0.9-3.9,0.9
		c1.7,4.3-1.4,9.8-1.4,9.8c-2.9,2.9-4,7.4-4.4,11.6c-2.7-2.1-7.3-2-7.3-2c-9.3,1.4-3.5,4.6-3.5,4.6c3.8,2.5,3.9,8,3.9,8
		c0.9,6.2,5.3,7.9,7,8.4c-1.5,6.2-6.7,11.5-6.7,11.5c-0.6-1.4-2.1-3-2.9-3.7c-0.7-3.6-3.8-6.3-7.6-6.3c-4.3,0-7.7,3.5-7.7,7.7
		c0,4.3,3.5,7.7,7.7,7.7c1.4,0,2.7-0.4,3.9-1.1c3.4,8.3-0.9,13.9-2.8,15.8c-0.9-1.5-1.9-2.7-3.1-3c-0.2-3.5-1.5-13.8-10.1-17.7
		c0,0-6.6-0.3-1.4,6.1c0,0,2.1,8.2-0.8,12c0,0-1.5,2.8-1.3,5.7c-0.7-0.4-1.4-0.7-2.1-0.9c0,0-2.7-0.3-0.8,5.2c0,0,0.9,9.5-0.3,13.7
		c0,0-0.2,3.1,0.6,7.5c-2.7-1-5.2-0.2-5.2-0.2c-8.2,1.7-5.5,5.5-5.5,5.5c5.2,2.7,7.1,8.2,7.1,8.2c4.4,11.9,12.9,12.8,15.4,12.8
		c0.1,3.8,0.4,8,1.6,11.7c0,0-2.3-1.8-5.7-2.2c-1.2-2.9-4-4.9-7.3-4.9c-4.3,0-7.9,3.5-7.9,7.9c0,4.3,3.5,7.9,7.9,7.9
		c2.5,0,4.8-1.2,6.2-3c1.9,0.7,8.2,3.5,10,12.1c-5.2-3.6-10.2-4.2-10.2-4.2c-7.3-1.7,0.9,10.9,0.9,10.9c0.2,0.6,0.4,1.3,0.6,1.9
		c-1.3,0.3-4.4,0.3-8.3-3.8c0,0-4.3-4.4-3.5,4.4c0,0-0.4,5.3,7.5,18.8c-1,0.1-2,0.2-3,0.3c0,0-6.9,4.3,0.5,5c0,0,10.3,3.5,13.4,13.6
		c0,0,5.8,7,10.8,8.7l2.1-1.9c-3.4-1.2-10.5-4.4-12.7-11.8c0,0-6.6-8-12.8-11.2c0,0,13.9-6,31.9,10.1c0,0,3.3,2.2,1.6-2.2
		c0,0-4.7-7.4-3.5-11.2c0,0,2.8,1.7,6,11.7c0,0,0,1.6,1.3,0.5c0,0-0.3-8.7-5.7-15c0,0-4.7-5.8-3.3-13.2c0,0-1.9-2-2.8,2.7
		c0,0,0,14.4,5.2,23c0,0-1.7-2.8-6.4-5.4c-2.2-4.6-6.9-17-0.5-33.3c0,0,2.4-6.3,3.2,1.3c0,0,0.9,10.6,9.1,17.3c0,0,6,6.8,5.5,16.1
		c0,0,3.5,2.7,3.2-7.1c0,0,4.3-22.9,14.7-27.3c0,0,1.2,20.9,0.2,28c0.7,0,1.4,0,2.1,0.1C149.6,303.7,150.3,277.7,148.1,279.7z
		 M86.5,271.6c-3,0-5.4-2.4-5.4-5.4s2.4-5.4,5.4-5.4c3,0,5.4,2.4,5.4,5.4S89.4,271.6,86.5,271.6z M126.5,248c3,0,5.4,2.4,5.4,5.4
		c0,3-2.4,5.4-5.4,5.4c-3,0-5.4-2.4-5.4-5.4C121.2,250.4,123.6,248,126.5,248z M139.2,223.7c0,0,3.3-0.2-1.8,6c0,0-4.9,5.7-5.7,7.3
		c0,0-2.9,3.1-5.5,4.6c1.9-3.9,2.8-7.6,2.8-7.6c0.4-2.5,1.9-6.5,3.4-9.9C134.3,223.5,137.2,222.9,139.2,223.7z M130.8,214.7
		c4.6-3.4,4.2-0.4,4.2-0.4c-1.9,1.3-5.9,11.1-5.9,11.1c-2.5,17.6-11.6,22-15,23c2-6.7,5.9-16.9,12.7-25.3c0,0-4.4,3.1-17.6,21.4
		C105,228.9,130.8,214.7,130.8,214.7z M119.4,250c-0.2,0.5-0.4,1.1-0.6,1.7c-1.4,0.3-3.7,1.3-6.5,3.8c0,0,0.3-1.7,1-4.3
		C115.6,251.5,117.6,251,119.4,250z M125.1,202.7c-2.7,1.3-7.6,8.6-9.4,11.3l-0.2-0.2c0,0-1-2.5-1.3-5.2c2.4-3,8-9.4,13-10.2
		c0,0,0,6.8,0.6,9.9c0,0-0.2,3.9-2.1,6.8c-2.5,1.6-4.7,3.2-6.6,4.9c-0.2-0.7-0.6-1.5-1.1-2.5c1.2-4.4,5.9-11.7,5.9-11.7
		C125.3,203,125.1,202.7,125.1,202.7z M132.8,183.2c2.4,0,4.4,2,4.4,4.4c0,2.4-2,4.4-4.4,4.4c-2.4,0-4.4-2-4.4-4.4
		C128.4,185.1,130.4,183.2,132.8,183.2z M126.5,190.3c0.6,1.4,1.7,2.6,3.1,3.4c-3.4,1.6-11.1,5.7-15.3,11.5c0.1-0.5,0.3-1,0.6-1.5
		c0,0,0.2-1.2-0.2-1.9C116.5,197.9,121.1,189.8,126.5,190.3z M125.1,142.8c1.7-2.2,4.1-9,4.1-9c1.6-3.9,3-2.5,3-2.5
		c3.1,2.2,4,5.2,4.3,6.7c-4.2,3.2-9.6,9.5-9.5,21.5c-1.2,0.1-1.9,0.6-1.9,0.6c-0.5-0.4-1-0.7-1.5-1
		C121.4,150.4,125.1,142.8,125.1,142.8z M117.4,160.5c-0.9-4.9-2.7-8.2-2.7-8.2c-4.6-2.7-1.6-3.5-1.6-3.5c4.1-0.7,6.9,1.2,8.1,2.3
		c0,2.8,0.2,5.3,0.4,6.7c-2.3-1.4-3.6-2-3.6-2c3.4,2.9,4.2,6.4,3.8,9.8C118.1,165,117.4,160.5,117.4,160.5z M107.2,180.8
		c-0.8,0.6-1.8,0.9-2.9,0.9c-2.9,0-5.2-2.3-5.2-5.2c0-2.9,2.3-5.2,5.2-5.2c2.4,0,4.4,1.7,5,3.9C106,176.7,106.7,179.6,107.2,180.8z
		 M110.6,182.5c-2.4-1.3-1.4-3.5-1.4-3.5c2.5-2.8,3.5,0.6,3.5,0.6c0.8,3.6,3,2,3,2c5.4-8,9.8-18.5,9.8-18.5c0.5-1.6,2.1-0.6,2.1-0.6
		c-0.5,3.2,1.3,2.5,1.3,2.5c3-0.3,2.5,1.1,2.5,1.1c-2.2,2.7-9.1,14.8-9.1,14.8c-3.9,7.1-1.6,6.5-1.6,6.5c1.4-2.7,4.2-2.7,5.8-2.4
		c-0.3,0.7-0.4,1.5-0.4,2.4l0,0.1c-2.4,0.4-8.1,2.7-14.2,14.5c-0.9,0.6-2.2,1.6-3.7,3.1c-0.3-0.9-0.7-2.5-1.4-4
		C115.4,190.5,110.6,182.5,110.6,182.5z M106,207.3c-1.4,1.7-3.3,4.4-5.1,8.4c-0.9-1.6-2.5-4.4-4.8-7.1c0.9-2.7,3.2-9,5.3-9.1
		C101.4,199.4,105,199,106,207.3z M95.4,183.5c0,0,6.4,4.4,4.5,13.4c-0.4,0.4-0.9,0.9-1.3,1.6c0,0-2.4,4-4.2,8.1
		c-0.8-0.8-1.6-1.6-2.5-2.4c-0.2-2.7-0.2-6.7,0.7-8.7c0,0,3.3-7.4-0.3-11.8C92.3,183.6,89.8,179.5,95.4,183.5z M87.1,219.1
		c0,0,3-9.9,0.2-13.1c0,0-0.6-2.7,3,0.9c0,0,7.2,6.5,9.2,12.6c-0.8,2.5-1.5,5.2-1.9,8.4c-1.3-5.6-4.4-9.8-4.4-9.8
		c1.6,2.2,1.7,8.2,1.7,8.2c-0.2,1.8,1.3,5.2,2.2,6.9c-0.1,3.5,0.1,7.3,0.7,11.4C94.4,241.8,85.9,232.9,87.1,219.1z M97.9,252.6
		c-6.3,0.1-11.1-7.9-11.1-7.9c-2.4-5-5.8-10.3-5.8-10.3c-4.9-2.7-1.7-3.8-1.7-3.8c2-0.6,5.8-0.1,7.6,0.1c1.5,5.7,4.6,12.6,11.2,18.1
		C97.9,250,97.9,251.3,97.9,252.6z M111.2,205.2c0,0,2.2-2.2,1.6,3c0,0-0.5,8.4,2.8,11c0,0,1,1.4,0.8,3.1c-5.3,5.4-7.9,10.8-9,15.1
		c-0.4-4.3-0.3-10,1.9-16.2c0,0-2.9,0.4-7.1,26.1c0,0-0.8,0.3-1.6-0.3C99.4,242.7,94.7,221.2,111.2,205.2z M93.8,311.1
		c-2.1-1.9-9.4-9.2-10.3-19.4c0,0-0.2-2.2,2.5,0c0,0,4.9,3.9,8.7,2.8c1.1,4.9,1.2,9.5,1.2,9.5c-2.4-2.8-3.2-2.2-3.2-2.2
		c-0.3,2.8,4.4,8.1,5.7,9.5C97,311.1,95.4,311,93.8,311.1z M109.5,313.6c-2.1-0.8-4.5-1.6-7.5-2c-3.2-3.2-3.8-8.3-3.8-8.3
		c-2.1-13.4-4.6-17.7-4.6-17.7c-2.2-3.9-0.2-4.2-0.2-4.2c4.3,0.8,7.5,3,9.7,5.2l0,0.1l0.1,0c1.5,1.5,2.6,3.1,3.2,4
		c-0.3,1.6-0.5,3.4-0.5,5.2c-4-4.9-4.2-2.6-4.2-2.6c1.7,0.8,3.3,4.2,4.3,7C106.3,304.5,107.3,308.9,109.5,313.6L109.5,313.6z
		 M112,264.6c-2.3,4.7-1.5,9.9-0.7,12.7c-1,1.6-2.9,5.1-4.2,9.9c-0.5-0.6-1.1-1.1-1.6-1.6c-0.9-11.3-8.7-15.5-11.6-16.6
		c0.3-0.8,0.5-1.7,0.5-2.6c0-0.1,0-0.3,0-0.4c1.9,0.5,5.3,1.8,8.1,4.5c0,0,1.7-1.1-2.5-20c0,0,2.1,3.6,3.6,4.2c0,0,2.3-4.6,2.9-17.7
		c0,0-0.4,15.1,2.1,15.8c0,0,1.5-4,3.4-7.8c0,0-2.9,9.9-2.9,17.9c0,0,1.5-0.2,2.1-2.7c0,0,4.1-5.2,7.6-6.4c0.1,1.5,0.5,2.9,1.3,4.1
		C116.2,259.2,113.5,261.5,112,264.6z M123.4,296.1c-1-1.2-2.1-2.5-3.2-3.8c0,0-1.4-2-2.6-4.8c0.8-3.4,2.5-11,2.3-14.7
		c0,0,0-3,2.7,1.6c0,0,2.8,3.2,3.1,8.6C124.7,285.4,123.4,289.9,123.4,296.1z M133,297.5c0,0-1.6-9.1,1.2-12.9c0,0-3.8-0.6-5,18.4
		c0,0-1.6-2-3.9-4.8c0.3-5.3,1.8-21.1,10.7-25.2c0,0,1.3-1.7,0.5,5.2c0,0,0.8,5.8,2.3,9.1C136.5,289.8,134.5,293.1,133,297.5z
		 M342.1,110.9c-3.6-1.1-7.6-4.7-7.6-4.7c-2.5-3.5-4.1-2.5-4.1-2.5c-3.5,0.9-1.7,6.1-1.7,6.1c1.8,2.3,2.3,5.1,2.4,6.7h1.8
		c-0.2-2-1-4.4-1-4.4c-2.4-5-0.2-5.4-0.2-5.4c0.6,1.4,2.8,2,2.8,2c5.8,1.9,9.4,5.8,10.8,7.7h2.7
		C346.7,113.9,342.1,110.9,342.1,110.9z"/>
	<path id="XMLID_510_" d="M386.7,337.2l-23.1-22c-3.2-3.4-11.1-8.4-18.1-2.4c-0.1,0.1-2.1,1.9-2.2,4.5c0,0.1,0,0.2,0,0.3
		c0,1.6,0.7,3.1,2,4.5c0.2,0.1,0.4,0.3,0.5,0.4c-11.5-0.7-17,5.2-17.3,5.5c-2.8,2.7-4.1,5.4-3.7,8c0.5,3.4,3.8,5.1,3.9,5.2l0.4,0.2
		l0.4-0.1c1.3-0.3,2,0.2,2.1,0.2c1.2,1.1,1.9,2.1,1.9,2.8l0,0.2c-0.2,0.8-1.6,1.5-2.3,1.7c-5.6-0.5-9.4,2.1-9.6,2.2
		c-0.5,0.4-27.7,22.4-67.7,23.7c-2.1,1.3-3.3,1.9-3.3,1.9l-0.8,0.4l-0.8-0.4c0,0-1.2-0.7-3.4-2c-20.2-0.9-43.2-7.3-67.3-24.2
		c0,0-3-2.5-10-2c-0.5-0.1-1.8-0.6-2.1-1.4c0-0.1-0.1-0.2-0.1-0.3c0-0.6,0.4-1.3,1.1-2.2c0-0.1,0.7-0.8,3.1-0.4l0.2,0l0.2,0
		c0.1,0,3.3-0.4,4.5-3c1-2.2,0.3-5.1-2.2-8.6c-0.4-0.5-8.2-8.7-18.2-7.8c0.7-1.4,1-2.9,1-4.3c0-2-0.4-3.6-0.4-3.7l0-0.2l-0.1-0.1
		c-4-7.3-14.3-2.6-14.7-2.4l-0.2,0.1l-29.5,27.8l-0.1,0.2c-0.1,0.1-5.9,11.2,6.5,19.9c0.5,0.3,8.5,4.7,14.2-0.3l4.5-5.4
		c0.9,0.1,3.7,0.9,4.7,4.9l-5.2,6l-0.1,0.2c-0.1,0.2-1.4,3-1.4,6.7c0,1.7,0.3,3.7,1.2,5.5c1.9,4,5.8,6.8,11.7,8.3
		c0.1,0,5.6,1.4,11.5,6.8c1,0.8,91.2,65.3,189.6-4.2l0.1-0.1l0.1-0.1c0.1-0.1,2.2-2.5,8-2.7l0.2,0l0.2-0.1c0.3-0.1,6.6-2.1,9.2-7.9
		c0.7-1.5,1-3.1,1-4.9c0-2.5-0.7-5.1-2-7.9l-0.1-0.1l-0.1-0.1c-0.3-0.3-2.7-3.2-5.9-7c0.7-1.2,2.1-3.1,4.9-3.5l3.6,4.5
		c3,2.8,10.1,6.2,16.5,0c0.2-0.1,6.5-5.1,7.1-11.8C390.5,343.1,389.3,340,386.7,337.2L386.7,337.2z M137.4,351.7l16.2-19.5
		c0.5-0.6,4.9-5.3,11.5,0.2c0.6,0.5,1.2,1.1,1.4,1.5c-0.2,0.1-0.6,0.3-1.8,0.3l-0.2,0l-0.2,0.1c-0.1,0.1-3.5,1.4-6.3,4.5l-15.5,17.8
		C141.1,353.8,139.1,352.3,137.4,351.7L137.4,351.7z M356.5,355.2c-6.1-7.1-14-16.1-16.3-17.9c0,0-1.5-1.3-4.4-2.4l-0.2-0.1l-0.2,0
		c-1.3-0.1-2.7-0.5-3-0.8c0.1-0.2,0.5-1,3.3-2.7c0.2-0.1,5.5-3.1,11.3,1.9l14.4,18.2C358.9,352.3,357.4,353.8,356.5,355.2
		L356.5,355.2z M387.8,346.2c-0.4,5.6-6.2,10-6.2,10.1c-6.4,6.2-12.8,0.5-13,0.2l-19.7-24.9c-7.4-6.4-14.3-2.4-14.4-2.4
		c-2.2,1.3-4.5,3-4.5,4.9c0,0.2,0,0.4,0.1,0.6c0.5,2.2,3.8,2.6,5.1,2.7c2.3,0.8,3.5,1.9,3.5,1.9c2.1,1.7,10,10.5,16.7,18.4l0,0.1
		l0.1,0c2.5,2.9,4.9,5.7,6.7,7.9c1.1,2.4,1.7,4.7,1.7,6.7c0,1.4-0.3,2.7-0.8,3.8c-2,4.7-7.4,6.4-7.6,6.5c-6.2,0.3-8.8,2.8-9.4,3.4
		c-96.8,68.3-185.6,4.9-186.5,4.2c-6.2-5.7-12.2-7.2-12.4-7.3c-5.1-1.3-8.5-3.7-10-6.9c-0.7-1.5-0.9-3.1-0.9-4.5
		c0-2.9,0.9-5.1,1.1-5.5c0.3-0.3,22.4-25.7,22.4-25.7c2.3-2.5,4.9-3.6,5.3-3.8c1.6-0.1,3.5-0.4,4-2c0.1-0.2,0.1-0.4,0.1-0.7
		c0-1.6-1.8-3.1-2.4-3.6c-8.6-7.2-14.9,0.1-15,0.2l-22.3,26.9c-4.2,3.6-11,0-11-0.1c-5.4-3.9-6.8-8.2-6.8-11.4c0-2.7,0.9-4.6,1.1-5
		c0.3-0.3,28.6-26.9,28.9-27.2c0.8-0.3,8.4-3.5,11.2,1.3c0.1,0.6,0.3,1.7,0.3,2.9c0,1.5-0.3,3.1-1.1,4.1c-0.3,0.4-0.8,0.7-1.2,0.9
		l-0.2,0l0,0.1c-0.5,0.2-1,0.3-1.6,0.3c-2.9-0.2-3.5-3.2-3.5-3.2c-0.9-2.9,1.4-2.4,1.4-2.4l0.1,0.1c1.6-1.1-1.5-1.8-1.5-1.8
		c-3.3,0.2-3.6,3.8-3.6,3.8c1.2,4.7,4.8,5.7,6,6l0,0.1c0.1,0,0.3,0,0.4,0l0,0l0,0c1.3,0,2.4-0.2,3.4-0.6c10.3-3.3,19.1,6.2,19.1,6.3
		c1.4,2,2.1,3.7,2.1,5c0,0.4-0.1,0.7-0.2,1c-0.6,1.2-2.2,1.5-2.4,1.5c-3.8-0.6-5.1,1.1-5.2,1.4c-1.4,1.7-1.9,3.3-1.4,4.8
		c0.8,2.3,3.7,3,4.1,3.1l0.2,0l0.2,0c6-0.6,8.5,1.4,8.5,1.4c79.1,55.2,145.8,1.1,146.5,0.5c0,0,3.3-2.2,8.1-1.7l0.2,0l0.2-0.1
		c0.4-0.1,3.7-1,4.3-3.6c0.4-1.7-0.5-3.6-2.7-5.5c-0.2-0.1-1.5-1.1-3.7-0.8c-0.6-0.4-2.1-1.4-2.3-3.1c0-0.2,0-0.3,0-0.5
		c0-1.6,1.1-3.4,3.1-5.4c0.3-0.3,5.8-6.4,18.1-4.5c3.2,0.9,4.3,0,4.3,0c9.9-6.5,2-9.3,2-9.3c-4.5,0.4-1.9,1.9-1.9,1.9
		c1.7-0.3,1.6,1.7,1.6,1.7c0.5,4-2.3,4-3.9,3.7c-0.4-0.6-1.4-1.5-3.6-3c-0.7-0.8-1.2-1.8-1.1-2.8c0.1-1.6,1.4-2.8,1.4-2.8
		c6.8-5.9,14.3,1.9,14.6,2.3l23.1,22C387,341.2,388,343.6,387.8,346.2L387.8,346.2z"/>
	<path id="XMLID_606_" class="st2" d="M321.4,348.6L321.4,348.6l-1.6,1.2C320.6,349.2,321.1,348.8,321.4,348.6z M392.8,180.5
		c0.8,0.6,1.8,0.9,2.9,0.9c0.2,0,0.3,0,0.4,0c0.8-0.2,1.5-0.7,2.1-1.3c2-2,2-5.3,0-7.4c-1-1-2.3-1.5-3.7-1.5c-0.2,0-0.3,0-0.5,0
		c-1.7,0.5-3,1.9-3.4,3.6C394,176.4,393.3,179.4,392.8,180.5L392.8,180.5z M384.4,181.5c-5.4-8-9.8-18.5-9.8-18.5
		c-0.5-1.6-2-0.6-2-0.6c0.5,3.2-1.3,2.5-1.3,2.5c-3-0.3-2.5,1.1-2.5,1.1c2.2,2.7,9.1,14.8,9.1,14.8c3.9,7.1,1.6,6.5,1.6,6.5
		c-1.4-2.7-4.2-2.7-5.8-2.4c0.3,0.7,0.4,1.5,0.4,2.4l0,0.1c2.4,0.4,8.1,2.7,14.2,14.5c0.9,0.6,2.2,1.6,3.7,3c0.3-0.9,0.7-2.4,1.4-4
		c-8.8-10.8-4-18.7-4-18.7l0.1,0c-0.1-0.1-0.3-0.2-0.4-0.4l1.8-1.8l0.2,0.1c0.1-0.8-0.2-1.4-0.2-1.4c-2.5-2.8-3.5,0.6-3.5,0.6
		C386.6,183.1,384.4,181.5,384.4,181.5L384.4,181.5z M401.4,198.2c0,0,2.4,4,4.2,8.1c0.8-0.8,1.6-1.6,2.5-2.4
		c0.2-2.7,0.2-6.7-0.7-8.7c0,0-3.3-7.4,0.3-11.8c0,0,2.5-4.1-3.2-0.2c0,0-6.4,4.4-4.5,13.4C400.5,197,400.9,197.5,401.4,198.2z
		 M398.6,199.2c0,0-3.6-0.4-4.6,7.9c1.4,1.7,3.3,4.4,5.1,8.4c0.9-1.6,2.5-4.4,4.8-7.1C403,205.6,400.7,199.3,398.6,199.2z
		 M369.9,160.1c0.2-0.1,0.5-0.2,0.7-0.3c0.1-3.7-0.5-13.6-9-19.3v10.7C365.8,154.3,369.9,160.1,369.9,160.1z M364.2,131.1
		c-0.6-0.9-1.4-2.2-2.5-3.2v8.5l0.1,0.1C362,134.7,363,132.8,364.2,131.1z M387.2,208c0,0,0.5,8.4-2.8,11c0,0-1,1.4-0.8,3.1
		c5.3,5.4,7.9,10.8,9,15.1c0.4-4.3,0.3-10-1.9-16.2c0,0,2.9,0.4,7.2,26.1c0,0,0.8,0.3,1.6-0.3c1.2-4.4,5.8-26-10.6-41.9
		C388.8,205,386.6,202.8,387.2,208z M373,159.3c1.2,0.1,1.9,0.6,1.9,0.6c0.5-0.4,1-0.7,1.5-1c2.2-8.7-1.5-16.3-1.5-16.3
		c-1.7-2.2-4.1-9-4.1-9c-1.6-3.9-3-2.5-3-2.5c-3.1,2.2-4,5.2-4.3,6.7C367.7,140.9,373.1,147.3,373,159.3z M378.2,165.3
		c3.7-0.5,4.5-5,4.5-5c0.9-4.9,2.7-8.2,2.7-8.2c4.6-2.7,1.6-3.5,1.6-3.5c-4.1-0.7-6.9,1.2-8.1,2.3c0,2.8-0.2,5.3-0.4,6.7
		c2.3-1.4,3.6-2,3.6-2C378.6,158.4,377.8,161.9,378.2,165.3z M394.1,300.2c-0.4,4.1-1.4,8.5-3.6,13.2c2.1-0.8,4.5-1.6,7.5-2
		c3.2-3.2,3.8-8.3,3.8-8.3c2.1-13.4,4.6-17.7,4.6-17.7c2.2-3.9,0.2-4.2,0.2-4.2c-4.3,0.8-7.5,3-9.7,5.2l0,0.1l-0.1,0
		c-1.5,1.5-2.6,3.1-3.2,4c0.3,1.6,0.5,3.4,0.5,5.2c4-4.9,4.2-2.6,4.2-2.6C396.7,294,395.1,297.4,394.1,300.2L394.1,300.2z
		 M361.6,156.3v8.2c2.1,1,4.2,1.1,4.2,1.1C366.1,162.9,363.7,159,361.6,156.3z M397.6,270.1c0,0-1.7-1.1,2.5-20c0,0-2.1,3.6-3.6,4.2
		c0,0-2.3-4.6-2.9-17.7c0,0,0.4,15.1-2.1,15.8c0,0-1.5-4-3.4-7.8c0,0,2.9,9.9,2.9,17.9c0,0-1.5-0.2-2.1-2.7c0,0-4.1-5.2-7.6-6.4
		c-0.1,1.5-0.5,2.9-1.4,4.1c3.8,1.4,6.5,3.7,8,6.8c2.3,4.7,1.5,9.9,0.7,12.7c1,1.6,2.9,5.1,4.2,9.9c0.5-0.6,1.1-1.1,1.6-1.6
		c0.8-10.1,7.1-14.5,10.5-16.2c-0.4-0.9-0.6-1.9-0.6-2.9c0-0.1,0-0.2,0-0.3C402.6,266.7,399.9,267.9,397.6,270.1z M379.8,292.1
		c0,0,1.4-2,2.6-4.8c-0.8-3.4-2.5-11-2.3-14.7c0,0,0-3-2.7,1.6c0,0-2.8,3.2-3.1,8.6c1,2.6,2.3,7,2.3,13.2
		C377.6,294.7,378.7,293.4,379.8,292.1z M370.9,302.7c0,0,1.6-2,3.9-4.8c-0.3-5.3-1.8-21.1-10.7-25.3c0,0-1.3-1.7-0.5,5.2
		c0,0-0.8,5.8-2.3,9.1c2.1,2.6,4.1,5.9,5.6,10.3c0,0,1.6-9.1-1.2-12.9C365.9,284.3,369.6,283.7,370.9,302.7z M402.5,227.7
		c1.3-5.6,4.4-9.8,4.4-9.8c-1.6,2.2-1.7,8.2-1.7,8.2c0.2,1.8-1.3,5.2-2.2,6.9c0.1,3.5-0.1,7.3-0.7,11.4c3.4-2.9,11.8-11.8,10.6-25.6
		c0,0-3-9.9-0.2-13.1c0,0,0.6-2.7-3,0.9c0,0-7.2,6.5-9.2,12.6C401.4,221.8,402.1,224.6,402.5,227.7z M384.3,213.8l0.2-0.2
		c0,0,1-2.5,1.3-5.2c-2.4-3-8-9.4-13-10.2c0,0,0,6.8-0.6,9.9c0,0,0.2,3.9,2.1,6.8c2.5,1.6,4.7,3.2,6.6,4.9c0.2-0.7,0.6-1.5,1.1-2.5
		c-1.2-4.4-5.9-11.7-5.9-11.7c-1.4-2.7-1.3-3-1.3-3C377.6,203.8,382.5,211,384.3,213.8z M370.9,225.1c2.5,17.6,11.6,22,15,23
		c-2-6.7-5.9-16.9-12.7-25.3c0,0,4.4,3.1,17.6,21.4c4.2-15.6-21.6-29.9-21.6-29.9c-4.6-3.4-4.2-0.4-4.2-0.4
		C366.9,215.3,370.9,225.1,370.9,225.1z M371.7,248.1c-2.1,0.7-3.6,2.7-3.6,5.1c0,3,2.4,5.4,5.4,5.4c0.3,0,0.6,0,0.8-0.1
		c2.1-0.7,3.6-2.7,3.6-5.1c0-3-2.4-5.4-5.4-5.4C372.3,248,372,248,371.7,248.1z M371.2,189.2c0.2-0.5,0.3-1.1,0.3-1.6
		c0-2.4-2-4.4-4.4-4.4c-1.8,0-3.3,1-4,2.5c-0.2,0.5-0.3,1.1-0.3,1.6c0,2.4,2,4.4,4.4,4.4C368.9,191.8,370.5,190.7,371.2,189.2z
		 M340.8,322.7c0.4-3.7,0.1-5.5-0.2-6.4c-0.6,0.7-1.4,1.3-2.3,1.7c0.8,1.5,0.6,3.6,0.3,5C339.3,322.9,340,322.8,340.8,322.7z
		 M288,365.9c0.8-0.3,1.5-0.5,2.3-0.8c-0.2-1.1,0.3-2.7,0.3-2.7C289.4,363.3,288.3,365.3,288,365.9z M363.4,167.6
		c-0.6-0.2-1.2-0.4-1.8-0.6v2.9C361.8,168.7,363.4,167.6,363.4,167.6z M368.3,236.7c0,0,2.9,3.1,5.5,4.6c-1.9-3.9-2.8-7.6-2.8-7.6
		c-0.4-2.5-1.9-6.5-3.4-9.9c-1.8-0.6-4.7-1.2-6.7-0.4c0,0-3.3-0.2,1.8,6C362.6,229.5,367.5,235.1,368.3,236.7z M204,345
		c-1.3-3.8-2.7-0.8-2.7-0.8c-3.2,5.6-0.7,13.7,0.6,17.2c1.4,0.6,2.8,1.2,4.2,1.8c0.1-2.5,0.2-9.2-2.4-11.5c0,0-0.3-3.2,4.1,2.5
		c0,0,4.5,6,5.4,11.6c1.7,0.6,3.5,1.1,5.2,1.6c0.8-4.6-2.2-8.2-2.2-8.2C211.4,355.4,204,345,204,345z M192,343.1
		c0,0,1.3-0.2,2.4,4.7c0,0,1.3,4.6,3.9,5.3c-0.1-2.6,0-5.1,0.2-7c-1.9-4.7-7.4-10.9-7.4-10.9c-4.9-5-3.3,0.2-3.3,0.2
		c1.4,2.8,1.1,6,1.1,6c-2.3,3.9-1.8,9.8-1.5,12.5c2.5,1.5,4.9,2.8,7.4,4.1c-0.3-2.5-1.1-8.8-2.2-10.3
		C192.4,347.7,191.3,345.1,192,343.1z M370.5,172.5c-0.6-0.8-1.1-1.4-1.1-1.4c-1.7-3.6-7.6-0.3-7.6-0.3c-0.1-0.2-0.2-0.3-0.2-0.5
		v3.8C363.7,172.8,366.6,171.7,370.5,172.5z M211.2,106.5c-3.2,0.3-5.1,0.8-6.3,1.4c5,2.2,13.2,0.1,13.2,0.1c3.9-3.2,7.7-5,7.7-5
		c4.9-2.4-5.4-5.2-5.4-5.2c-7.5,0.2-10.7,2.7-11.9,3.9c0.3,0,0.4,0,0.4,0c7.7-0.3,9.1,0.5,9.1,0.5
		C217,106.2,211.2,106.5,211.2,106.5z M310.2,341.2c0,0-0.3-3.2,1.1-6c0,0,1.5-5.2-3.3-0.2c0,0-5.4,6.2-7.3,10.9
		c0.1,1.9,0.2,4.4,0.2,7c2.6-0.7,3.9-5.3,3.9-5.3c1.1-4.9,2.3-4.7,2.3-4.7c0.6,2.1-0.5,4.6-0.5,4.6c-1.4,1.9-2.3,11.4-2.3,11.4
		l-2.2,1.3c4.6-2.2,8.4-4.4,11.5-6.2l-2.1,1.2C311.5,355.1,313.2,346.4,310.2,341.2z M320,343.9c1.7-2.7,0-2.7,0-2.7
		c-2.7-0.1-5,2.6-6.4,4.5c0.1,1.2,0.3,2.2,0.6,2.8c0,0,1.2,1.4,0.9,4.4c1.9-1.2,3.4-2.3,4.5-3C318.4,348.1,320,343.9,320,343.9z
		 M295.4,344.8c0,0-7.3,10.4-11.9,14.4c0,0-3.2,3.8-2.1,8.7c1.7-0.5,3.3-1,4.9-1.5c0.6-5.8,5.4-12.3,5.4-12.3c4.3-5.7,4-2.5,4-2.5
		c-3,2.6-2.4,11.1-2.3,12.3c1.3-0.5,2.5-1,3.6-1.5c1-2.4,4.5-12.1,1-18.4C298,344.1,296.6,341.1,295.4,344.8z M276.7,362.5
		c-4.5-4.6-4.2,7.3-4.2,7.3l-0.1,0.2c2.1-0.4,4.1-0.9,6.1-1.4C278.4,363.9,276.7,362.5,276.7,362.5z M137.9,169v-1.6
		c-0.4,0.1-0.8,0.3-1.2,0.4C136.6,167.9,137.3,168.4,137.9,169z M114.3,205.2c4.2-5.7,11.9-9.8,15.3-11.5c-1.4-0.7-2.5-1.9-3.1-3.4
		c-5.3-0.5-9.9,7.6-11.8,11.5c0.4,0.7,0.2,1.9,0.2,1.9C114.6,204.1,114.4,204.6,114.3,205.2z M100.6,247.2c0.8,0.6,1.6,0.3,1.6,0.3
		c4.2-25.7,7.1-26.1,7.1-26.1c-2.2,6.1-2.3,11.9-1.9,16.2c1.1-4.4,3.7-9.7,9-15.1c0.2-1.7-0.8-3.1-0.8-3.1c-3.3-2.7-2.8-11-2.8-11
		c0.6-5.2-1.6-3-1.6-3C94.7,221.2,99.4,242.7,100.6,247.2z M101.4,199.4c-2.1,0.1-4.4,6.4-5.3,9.1c2.3,2.8,3.9,5.6,4.8,7.1
		c1.7-3.9,3.7-6.7,5.1-8.4C105,199,101.4,199.4,101.4,199.4z M137.9,157.2c-1.9,2.7-3.9,6.2-3.7,8.6c0,0,1.8-0.2,3.7-0.9V157.2z
		 M135,214.2c0,0,0.4-2.9-4.2,0.4c0,0-25.7,14.3-21.6,29.9c13.2-18.3,17.6-21.4,17.6-21.4c-6.8,8.5-10.7,18.7-12.7,25.3
		c3.5-1.1,12.5-5.5,15-23C129.1,225.4,133.1,215.5,135,214.2z M132.8,192c2.4,0,4.4-2,4.4-4.4c0-2.4-2-4.4-4.4-4.4
		c-2.4,0-4.4,2-4.4,4.4C128.4,190,130.4,192,132.8,192z M137.9,141c-7.9,5.8-8.5,15.3-8.4,19c0.2,0.1,0.5,0.2,0.7,0.3
		c0,0,3.8-5.3,7.7-8.5V141z M129.5,172.7c3.5-0.7,6.3,0.2,8.3,1.3v-3.1c-1.2-0.6-5.8-2.6-7.2,0.5
		C130.6,171.3,130.2,171.9,129.5,172.7z M120,257.8c-0.8-1.2-1.3-2.6-1.3-4.1c-3.5,1.3-7.6,6.4-7.6,6.4c-0.6,2.5-2.1,2.7-2.1,2.7
		c0-8,2.9-17.9,2.9-17.9c-1.9,3.8-3.4,7.8-3.4,7.8c-2.5-0.6-2.1-15.8-2.1-15.8c-0.6,13-2.9,17.7-2.9,17.7c-1.5-0.6-3.6-4.2-3.6-4.2
		c4.2,18.9,2.5,20,2.5,20c-2.7-2.7-6.2-4-8.1-4.5c0,0.1,0,0.3,0,0.4c0,0.9-0.2,1.8-0.5,2.6c2.9,1.2,10.6,5.3,11.6,16.6
		c0.5,0.5,1.1,1,1.6,1.6c1.3-4.8,3.2-8.3,4.2-9.9c-0.8-2.8-1.6-8.1,0.7-12.7C113.5,261.5,116.2,259.2,120,257.8z M158.4,315.9
		c-0.3,0.8-0.6,2.5-0.3,6.4c0.5,0.1,1,0.1,1.5,0.2c-0.1-1.5-0.1-3.6,0.5-5C159.5,317.1,158.9,316.5,158.4,315.9z M154.1,111.3
		c-0.5,1.6-3.1,4-4.6,5.3h5.7C156.7,112.7,154.1,111.3,154.1,111.3z M164.3,306.3c-2.7,0-5,2.2-5,5c0,2.7,2.2,5,5,5c2.7,0,5-2.2,5-5
		C169.3,308.6,167,306.3,164.3,306.3z M188.8,110.8c-5.8,0.2-2.5-1.9-2.5-1.9c1.6,0.9,6,0.2,6,0.2c2.6-0.7,4.5-1,6.1-1.1
		c0.9-0.8,2.2-1.3,3.5-1.7c-0.4-0.2-0.3-0.2,0,0c3.9-1.2,8.7-0.9,8.7-0.9c8.7-1.9-12.5-2.5-12.5-2.5c1.2-0.8,3.4-1.1,5.6-1.2
		c5.6-4.3,14-5.1,14-5.1c11,0.5,11.7,4.9,11.7,4.9l0,0.1c0.5-0.1,0.9-0.1,1.4-0.1c2.1-0.6,4.8-1.8,5.6-4.1c0,0,0.6-1.3-2.7-1.3
		c0,0-2.4-1.4-4.3-2.8c0,0-12.5-6-27,6.3c0,0-1.3,0.2,2.2-3.5c0,0,3.9-3,6.8-4.6c0,0,2.8-1.6,1.4-3.2c0,0-0.6-1.7-3.6,1.6
		c0,0-1.9,1.3-4.4,1.1c0,0-6.5,2.1-9.1,10.1c0,0-1.7,2.5-9.8,3.8c0,0-3.6,1.9-6.3,3.5c0,0-2.5,1.6-2.2-0.4c-1.1,0.9-2.6,1.5-4.1,1.5
		c-0.2,0-0.3,0-0.5,0c-0.4,3.4-4.4,6-6.8,7.2h7.5c3.9-5.6,17-3.7,17-3.7C195,111.6,188.8,110.8,188.8,110.8z M105.8,296
		c0.1-1.9,0.2-3.6,0.5-5.2c-0.6-1-1.7-2.5-3.2-4l-0.1,0l0-0.1c-2.2-2.2-5.4-4.4-9.7-5.2c0,0-2,0.3,0.2,4.2c0,0,2.5,4.3,4.6,17.7
		c0,0,0.6,5.1,3.8,8.3c3,0.5,5.4,1.2,7.5,2c-2.1-4.7-3.2-9.2-3.6-13.2c-1-2.8-2.6-6.2-4.3-7C101.6,293.4,101.7,291.1,105.8,296
		L105.8,296z M126.5,258.7c3,0,5.4-2.4,5.4-5.4c0-3-2.4-5.4-5.4-5.4c-3,0-5.4,2.4-5.4,5.4C121.2,256.3,123.6,258.7,126.5,258.7z
		 M140,222.5c0.1,0.9,0.3,1.9,0.4,2.8C140.2,224.4,140.1,223.5,140,222.5z M133,297.5c1.5-4.4,3.6-7.7,5.6-10.3
		c-1.5-3.2-2.3-9.1-2.3-9.1c0.8-6.9-0.5-5.2-0.5-5.2c-8.9,4.2-10.4,20-10.7,25.2c2.4,2.9,3.9,4.8,3.9,4.8c1.3-19,5-18.4,5-18.4
		C131.4,288.4,133,297.5,133,297.5z M132.5,224.1c-1.5,3.4-3,7.4-3.4,9.9c0,0-0.9,3.6-2.8,7.6c2.6-1.5,5.5-4.6,5.5-4.6
		c0.8-1.6,5.7-7.3,5.7-7.3c5-6.2,1.8-6,1.8-6C137.2,222.9,134.3,223.5,132.5,224.1z M132.5,309.2c0.3,9.8-3.2,7.1-3.2,7.1
		c0.5-9.3-5.5-16.1-5.5-16.1c-8.2-6.8-9.1-17.3-9.1-17.3c-0.8-7.6-3.2-1.3-3.2-1.3c-6.3,16.3-1.7,28.7,0.5,33.3
		c4.7,2.5,6.4,5.4,6.4,5.4c-5.2-8.7-5.2-23-5.2-23c0.9-4.7,2.8-2.7,2.8-2.7c-1.4,7.4,3.3,13.2,3.3,13.2c5.4,6.3,5.7,15,5.7,15
		c-1.3,1.1-1.3-0.5-1.3-0.5c-3.2-9.9-6-11.7-6-11.7c-1.3,3.8,3.5,11.2,3.5,11.2c1.7,4.4-1.6,2.2-1.6,2.2
		c-18-16.1-31.9-10.1-31.9-10.1c6.2,3.2,12.8,11.2,12.8,11.2c2.1,7.4,9.3,10.6,12.7,11.8l26.8-25.3l0.2-0.1c0.2-0.1,3.5-1.6,7-1.6
		c1-7.1-0.2-28-0.2-28C136.8,286.3,132.5,309.2,132.5,309.2z M115.5,332.4c0,0-7.9-9.3-12.1-11.4c0,0,2.4-3.6,13.2,8
		C116.6,329,117.1,331.7,115.5,332.4z M144.3,293.1c-3.8,4.1-2.5,15.6-2.5,15.6c0,3.2-2.1,2.1-2.1,2.1c0-5.5-1.4-2.8-1.4-2.8
		c0.3,4.6-1.4,4.9-1.4,4.9c-1.3-0.2-0.3-5.8-0.3-5.8c4.3-15.6,7.7-15.8,7.7-15.8C146.5,289.1,144.3,293.1,144.3,293.1z M91.8,266.3
		c0-3-2.4-5.4-5.4-5.4c-3,0-5.4,2.4-5.4,5.4s2.4,5.4,5.4,5.4C89.4,271.6,91.8,269.2,91.8,266.3z M366.1,363.3c0,0,0.8,0.9,1.5,2.3
		c0.5-0.2,1.4-0.4,2.9-0.2c0,0,2.4,1.4-0.2,1.7c0,0-1-0.4-2.2-0.3c0.1,0.2,0.2,0.4,0.2,0.7c0.4,1.5,0.3,3.3,0.1,4.6
		c1.9-2.6,7.1-4.2,7.1-4.2c5.3-0.9,4.5-1.7,4.5-1.7C374.4,361.7,366.1,363.3,366.1,363.3z M119.7,366.1c0,0-0.8,0.8,4.4,1.7
		c0,0,5,1.6,7,4.1c-0.2-1.2-0.3-3.1,0.1-4.5c0.1-0.2,0.1-0.5,0.2-0.7c-1.1-0.1-2.2,0.3-2.2,0.3c-2.5-0.3-0.2-1.7-0.2-1.7
		c1.5-0.2,2.4,0,2.9,0.2c0.7-1.4,1.5-2.3,1.5-2.3S125.4,361.7,119.7,366.1z M93.8,311.1c1.6,0,3.2,0,4.7,0.1c-1.3-1.4-6-6.7-5.7-9.5
		c0,0,0.7-0.6,3.2,2.2c0,0-0.2-4.6-1.2-9.5c-3.7,1.1-8.7-2.8-8.7-2.8c-2.7-2.2-2.5,0-2.5,0C84.4,301.8,91.7,309.2,93.8,311.1z
		 M173.2,106.8c2.2,0,3.9-1.8,3.9-3.9c0-2.2-1.8-3.9-3.9-3.9c-2.2,0-3.9,1.8-3.9,3.9C169.3,105.1,171,106.8,173.2,106.8z
		 M380.3,323.8c0,0-3.3,2.2-1.6-2.2c0,0,4.7-7.4,3.5-11.2c0,0-2.8,1.7-6,11.7c0,0,0,1.6-1.3,0.5c0,0,0.3-8.7,5.7-15
		c0,0,4.7-5.8,3.3-13.2c0,0,1.9-2,2.8,2.7c0,0,0,14.4-5.2,23c0,0,1.7-2.8,6.4-5.4c2.2-4.6,6.9-17,0.5-33.3c0,0-2.4-6.3-3.2,1.3
		c0,0-0.9,10.6-9.1,17.3c0,0-6,6.8-5.5,16.1c0,0-3.5,2.7-3.2-7.1c0,0-4.3-22.9-14.7-27.3c0,0-1.2,21.6-0.1,28.3
		c4.6,0,8.8,2.9,10.9,5.2l22.6,21.6c3.2-1,10.8-4.2,13.1-11.9c0,0,6.6-8,12.8-11.2C412.1,313.7,398.2,307.7,380.3,323.8z
		 M363.1,312.6c0,0-1.7-0.3-1.4-4.9c0,0-1.4-2.7-1.4,2.8c0,0-2.1,1.1-2.1-2.1c0,0,1.3-11.5-2.5-15.6c0,0-2.2-3.9,0-1.9
		c0,0,3.5,0.2,7.7,15.8C363.4,306.7,364.3,312.4,363.1,312.6z M384.5,332.1c-1.6-0.6-1.1-3.3-1.1-3.3c10.9-11.7,13.2-8,13.2-8
		C392.4,322.8,384.5,332.1,384.5,332.1z M412.4,260.9c-0.2,0-0.3,0-0.5,0c-2.2,0.7-3.7,2.7-3.7,5.1c0,3,2.4,5.4,5.4,5.4
		c0.2,0,0.3,0,0.5,0c2.2-0.7,3.7-2.7,3.7-5.1C417.7,263.3,415.3,260.9,412.4,260.9z M420.8,230.4c-2-0.6-5.8-0.1-7.6,0.1
		c-1.5,5.7-4.6,12.6-11.2,18.1c0.1,1.2,0.1,2.4,0.1,3.8c6.3,0.1,11.1-7.9,11.1-7.9c2.4-5,5.8-10.3,5.8-10.3
		C424,231.5,420.8,230.4,420.8,230.4z M414,291.4c0,0-4.9,3.9-8.7,2.8c-1.1,4.9-1.2,9.5-1.2,9.5c2.4-2.8,3.2-2.2,3.2-2.2
		c0.3,2.8-4.4,8-5.7,9.5c1.4-0.1,3-0.2,4.6-0.1c2.1-1.9,9.4-9.2,10.3-19.4C416.5,291.4,416.7,289.2,414,291.4z M120.2,292.3
		c1.1,1.3,2.2,2.6,3.2,3.8c-0.1-6.2,1.2-10.7,2.3-13.2c-0.3-5.3-3.1-8.6-3.1-8.6c-2.7-4.6-2.7-1.6-2.7-1.6
		c0.2,3.7-1.5,11.3-2.3,14.7C118.8,290.3,120.2,292.3,120.2,292.3z M137.9,128.7c-0.9,0.9-1.5,1.9-2,2.7c0.8,1.2,1.6,2.5,2,3.9
		V128.7z M97.9,252.6c0-1.3,0.1-2.6,0.1-3.8c-6.6-5.5-9.7-12.4-11.2-18.1c-1.8-0.3-5.6-0.7-7.6-0.1c0,0-3.2,1.1,1.7,3.8
		c0,0,3.5,5.2,5.8,10.3C86.8,244.7,91.6,252.7,97.9,252.6z M114.7,152.3c0,0,1.7,3.3,2.7,8.2c0,0,0.8,4.6,4.5,5
		c0.4-3.4-0.4-6.8-3.8-9.8c0,0,1.3,0.6,3.6,2c-0.2-1.5-0.4-3.9-0.4-6.7c-1.1-1-4-3-8.1-2.3C113.1,148.8,110.1,149.6,114.7,152.3z
		 M115.5,213.8l0.2,0.2c1.8-2.7,6.7-10,9.4-11.3c0,0,0.2,0.3-1.3,3c0,0-4.7,7.3-5.9,11.7c0.5,1,0.9,1.9,1.1,2.5
		c1.9-1.7,4.1-3.3,6.6-4.9c1.9-2.9,2.1-6.8,2.1-6.8c-0.6-3.2-0.6-9.9-0.6-9.9c-5,0.8-10.6,7.2-13,10.2
		C114.5,211.3,115.5,213.8,115.5,213.8z M125.1,160.1c0,0,0.7-0.6,1.9-0.6c-0.1-12,5.3-18.4,9.5-21.5c-0.3-1.5-1.2-4.5-4.3-6.7
		c0,0-1.4-1.4-3,2.5c0,0-2.4,6.8-4.1,9c0,0-3.7,7.6-1.5,16.3C124.1,159.4,124.6,159.8,125.1,160.1z M110.6,182.5c0,0,4.8,7.9-4,18.7
		c0.6,1.5,1.1,3,1.4,4c1.6-1.5,2.8-2.5,3.7-3.1c6.1-11.7,11.8-14.1,14.2-14.5l0-0.1c0-0.8,0.2-1.6,0.4-2.4c-1.6-0.3-4.4-0.4-5.8,2.4
		c0,0-2.4,0.6,1.6-6.5c0,0,6.9-12.1,9.1-14.8c0,0,0.5-1.4-2.5-1.1c0,0-1.7,0.6-1.3-2.5c0,0-1.6-0.9-2.1,0.6c0,0-4.4,10.4-9.8,18.5
		c0,0-2.2,1.6-3-2c0,0-0.9-3.5-3.5-0.6C109.2,179.1,108.2,181.3,110.6,182.5z M97.7,244.7c-0.6-4.1-0.8-7.9-0.7-11.4
		c-0.9-1.7-2.5-5.1-2.2-6.9c0,0-0.2-6-1.7-8.2c0,0,3.2,4.2,4.4,9.8c0.4-3.1,1.1-5.9,1.9-8.4c-2-6.1-9.2-12.6-9.2-12.6
		c-3.6-3.6-3-0.9-3-0.9c2.8,3.2-0.2,13.1-0.2,13.1C85.9,232.9,94.4,241.8,97.7,244.7z M92.6,195.5c-1,2.1-0.9,6-0.7,8.7
		c0.9,0.7,1.7,1.5,2.5,2.4c1.8-4.1,4.2-8.1,4.2-8.1c0.5-0.7,0.9-1.2,1.3-1.6c1.9-9-4.5-13.4-4.5-13.4c-5.7-3.9-3.2,0.2-3.2,0.2
		C95.9,188.1,92.6,195.5,92.6,195.5z M104.3,181.6c1,0,2-0.3,2.9-0.9c-0.5-1.2-1.2-4.1,2.2-5.6c-0.6-2.2-2.6-3.9-5-3.9
		c-2.9,0-5.2,2.3-5.2,5.2C99.1,179.3,101.5,181.6,104.3,181.6z M195.7,112.5l-0.9,0.2c-0.4,1.5-1.5,2-2.4,2.2l-0.2,1.1l0.1,0.6h6.7
		l0.1-0.6C199.2,114.1,197.7,112.5,195.7,112.5z M141.2,314.1c-0.9,0.8-3,2.9-5.9,5.5C138.1,317,140.3,314.9,141.2,314.1z
		 M141.6,313.7c0,0-0.2,0.1-0.4,0.4C141.4,313.9,141.5,313.7,141.6,313.7z M178.9,341.4c0,0-1.7,0,0,2.7c0,0,1,2.8,0.7,4.8
		c1.4,0.9,2.8,1.9,4.1,2.7c0.1-2,1-3,1-3c0.3-0.5,0.5-1.6,0.6-2.8C184,344,181.6,341.2,178.9,341.4z M223,362.6c0,0-1.7,1.3-1.9,5.7
		c2.1,0.5,4.1,1,6.1,1.5C227.3,368.5,227.3,358.4,223,362.6z M297.7,111.3l0,0.1l-1-0.1c-2,0-3.6,1.6-3.6,3.6c0,0.6,0.1,1.2,0.4,1.7
		h6.4c0.3-0.5,0.4-1.1,0.4-1.7l0-0.6l0.2,0C299.5,113.7,298.3,112.7,297.7,111.3z M226.6,113.1c-4.4,0.6-8.8-0.3-11.1-1
		c-3.3,1.1-6.5,0.6-9-0.2c2.5,2.1,5.3,3.8,6.8,4.7h16.1C228.9,114.7,227.6,113.6,226.6,113.1z M208.8,362.5c0,0,0.3,1,0.3,2
		c0.6,0.2,1.2,0.4,1.8,0.7C210.5,364.3,209.7,363.1,208.8,362.5z M302.7,355.6c-0.3,0.6-1.2,0.6-1.9,0.6c-0.2,1.8-0.5,3.5-0.9,5.1
		c0.6-0.3,1.2-0.5,1.8-0.8C303.1,358.5,302.7,355.6,302.7,355.6z M196.5,355.7c0,0-0.3,1.7,0.3,3.3c0.8,0.4,1.5,0.7,2.3,1.1
		c-0.3-1.2-0.5-2.5-0.6-3.8C197.8,356.3,196.8,356.3,196.5,355.7z M334.5,108.9c0,0-2.2-0.6-2.8-2c0,0-2.2,0.3,0.2,5.4
		c0,0,0.8,2.4,1,4.4h5.2c-0.9-1.2-2.6-3.5-4.2-4.5c0,0,1.6-1.6,6.9,4.5h4.6C343.9,114.7,340.3,110.8,334.5,108.9z M227.6,103.5
		c-3.4,1.5-6.8,5.4-6.8,5.4c-0.7,0.6-1.3,1.1-2,1.6c2.9,1.6,8,0.6,8,0.6c8.5-3.2,15.3-2.4,15.3-2.4
		C238.7,102.8,230.8,103.1,227.6,103.5z M358.6,314.4c-0.4-0.3-0.9-0.5-1.4-0.8C357.7,313.9,358.2,314.1,358.6,314.4z M305.5,98.5
		c1.3-0.5,3.4-1,5-0.5l0.4-0.5c0.4-0.6,0.6-1.3,0.6-2c0-2.1-1.7-3.8-3.8-3.8c-2.1,0-3.8,1.7-3.8,3.8
		C303.9,96.7,304.5,97.8,305.5,98.5z M319.7,111.6c0,0-8.5-4.4-9-9.8c0,0-3.6-1.9-3.9,0.9c0,0,0.5,4.6-3.6,0.6c0,0-1.1-1.1-6.2-3
		c0,0-5.5-1.1-9.8-7.1c0,0-4.9-5.5-11.8-6.3c0,0-5.7-0.9-8.5-3.6c0,0-3.5-0.5-0.3,4.1c0,0,0.7,0.8,2.2,1.7c3.2,0.4,15.4,2.4,19.9,11
		c0,0,0,0.1,0,0.2c0.3,0.4,0.6,1.3,0.9,3.1c0,0-4-0.4-8,1.9c5.7-0.6,4.8,1.4,4.8,1.4c-6.6,0.2-13.2,7.7-13.2,7.7
		c-1.8-3.1,1.3-6.1,3.4-7.6c-5.1,0.6-15.1,0.5-24.8-6.9c-6-0.3-4.5,1.4-4.5,1.4c2.5,0.3,4.9,2.2,4.9,2.2c6.2,7.6,14.7,7.4,14.7,7.4
		c5.2-0.3,3.6,0.6,3.6,0.6c-1.7,1.4-2.9,3.7-3.5,5h8.9c2.7-1.6,10.9-6.6,13-9.9c0,0,6.9-4.1,12,0.8c0,0,0.6,4.3,5.4,3.8
		c0,0,8.5-0.6,10.9,5.3h9.8C325.9,115.5,323.9,113.8,319.7,111.6z M252.5,97.4c0,0,17.3,14.1,31.4,3.5c-3.1-1.4-10.2-4-16.9-1.3
		c0,0-0.1-5.4,15.2-2.7c-2.6-2.9-9.1-7.6-22.9-4.3c0,0-6.2,1.7-11.5-0.3C247.8,92.3,245,93.4,252.5,97.4z M293.3,96.3l-0.8-0.8
		c0.1,0.1,0.2,0.3,0.2,0.4C292.7,96,292.9,96.1,293.3,96.3z M260.6,90.1c0.9-0.3,3.1-1.1,5.2-1.3c-0.6-0.7-1.4-1.8-1.8-3.2
		c-2.2,0.7-5.9-0.4-5.9-0.4c-2-3-1.7-0.6-1.7-0.6C256.6,87.9,259,89.5,260.6,90.1z M340,311.3c0-2.7-2.2-5-5-5c-2.7,0-5,2.2-5,5
		c0,2.7,2.2,5,5,5C337.8,316.3,340,314,340,311.3z M357.2,313.6c-0.5-0.2-1-0.5-1.6-0.6C356.1,313.1,356.6,313.4,357.2,313.6z"/>
</g>
</svg>
